<svg xmlns="http://www.w3.org/2000/svg" xmlns:xlink="http://www.w3.org/1999/xlink" id="Layer_1" x="0" y="0" version="1.1" viewBox="0 0 282 78" xml:space="preserve" style="enable-background:new 0 0 282 78"><style type="text/css">.st0{clip-path:url(#SVGID_2_)}.st1{fill:url(#SVGID_3_)}.st2{fill:url(#SVGID_4_)}.st3{fill:url(#SVGID_5_)}.st4{fill:url(#SVGID_6_)}.st5{fill:url(#SVGID_7_)}.st6{fill:url(#SVGID_8_)}.st7{fill:url(#SVGID_9_)}.st8{fill:url(#SVGID_10_)}.st9{fill:url(#SVGID_11_)}.st10{fill:url(#SVGID_12_)}.st11{fill:url(#SVGID_13_)}.st12{fill:url(#SVGID_14_)}.st13{fill:url(#SVGID_15_)}.st14{fill:url(#SVGID_16_)}.st15{fill:url(#SVGID_17_)}.st16{fill:url(#SVGID_18_)}.st17{fill:url(#SVGID_19_)}.st18{fill:url(#SVGID_20_)}.st19{fill:url(#SVGID_21_)}.st20{fill:url(#SVGID_22_)}.st21{fill:url(#SVGID_23_)}.st22{fill:url(#SVGID_24_)}.st23{fill:url(#SVGID_25_)}.st24{fill:url(#SVGID_26_)}.st25{fill:url(#SVGID_27_)}.st26{fill:url(#SVGID_28_)}.st27{fill:url(#SVGID_29_)}.st28{fill:url(#SVGID_30_)}.st29{fill:url(#SVGID_31_)}.st30{fill:url(#SVGID_32_)}.st31{fill:url(#SVGID_33_)}.st32{fill:url(#SVGID_34_)}.st33{fill:url(#SVGID_35_)}.st34{fill:url(#SVGID_36_)}.st35{fill:url(#SVGID_37_)}</style><g><defs><rect id="SVGID_1_" width="282" height="77.6" y="0"/></defs><clipPath id="SVGID_2_"><use xlink:href="#SVGID_1_" style="overflow:visible"/></clipPath><g class="st0"><path fill="#fff" d="M134.1,14h7.5l-10.9,32.8h-8.6L114,22.1l-8.1,24.8h-8.4L86.6,14h7.6L102,39L110,14h8.1l8.2,25.1L134.1,14z"/><path fill="#fff" d="M173.6,33.1h-24.2c0.2,1.7,0.9,3.3,1.8,4.7c0.9,1.2,2.1,2.2,3.4,2.8c1.4,0.6,2.9,0.9,4.4,0.9c1.7,0,3.4-0.3,5-0.9 c1.6-0.6,3.2-1.5,4.5-2.6l3.6,5.1c-1.8,1.6-3.9,2.8-6.2,3.5c-2.4,0.7-4.8,1.1-7.3,1.1c-3,0.1-6-0.7-8.7-2.1 c-2.5-1.4-4.6-3.5-5.9-6.1c-1.4-2.6-2.1-5.6-2.1-9.1c-0.1-3.1,0.7-6.2,2.1-9c1.3-2.5,3.3-4.6,5.8-6.1c2.6-1.5,5.5-2.2,8.5-2.2 c2.8-0.1,5.6,0.7,8.1,2.2c2.4,1.5,4.3,3.6,5.5,6.1c1.4,2.8,2,5.9,2,9C173.7,31.1,173.7,32,173.6,33.1z M166.4,27.6 c-0.4-2.6-1.3-4.5-2.8-6c-1.4-1.4-3.3-2.1-5.5-2.1c-2.4,0-4.4,0.7-5.9,2.2s-2.4,3.4-2.8,5.9L166.4,27.6z"/><path fill="#fff" d="M204.2,15.4c2.5,1.5,4.5,3.6,5.9,6.2c1.5,2.7,2.2,5.8,2.2,8.9c0,3.1-0.7,6.2-2.2,8.9c-1.4,2.6-3.4,4.7-5.9,6.2 c-2.5,1.5-5.4,2.3-8.3,2.2c-2,0-4.1-0.4-5.9-1.2c-1.7-0.8-3.2-2-4.4-3.5v3.9h-7.2V0.1h7.2v17.9c1.2-1.5,2.7-2.7,4.4-3.5 c1.9-0.9,3.9-1.3,5.9-1.2C198.8,13.2,201.7,13.9,204.2,15.4L204.2,15.4z M200.3,39.6c1.5-0.9,2.7-2.2,3.5-3.8 c0.8-1.7,1.2-3.5,1.2-5.3c0-1.8-0.4-3.7-1.2-5.3c-0.8-1.6-2-2.9-3.5-3.8c-1.6-1-3.4-1.4-5.2-1.4c-1.8,0-3.6,0.4-5.2,1.4 c-1.5,0.9-2.7,2.2-3.5,3.8c-0.8,1.7-1.3,3.5-1.2,5.4c0,1.9,0.4,3.7,1.2,5.4c0.8,1.6,2,2.9,3.5,3.8c1.6,0.9,3.3,1.4,5.2,1.4 C196.9,41,198.7,40.5,200.3,39.6L200.3,39.6z"/><path fill="#fff" d="M247.8,33.1h-24.2c0.2,1.7,0.9,3.3,1.8,4.7c0.9,1.2,2.1,2.2,3.4,2.8c1.4,0.6,2.9,0.9,4.4,0.9c1.7,0,3.4-0.3,5-0.9 c1.6-0.6,3.2-1.5,4.5-2.6l3.6,5.1c-1.8,1.6-3.9,2.8-6.2,3.5c-2.4,0.7-4.8,1.1-7.3,1.1c-3,0.1-6-0.7-8.7-2.1 c-2.5-1.4-4.6-3.5-5.9-6.1c-1.4-2.6-2.1-5.6-2.1-9.1c-0.1-3.1,0.7-6.2,2.1-9c1.3-2.5,3.3-4.6,5.8-6.1c2.6-1.5,5.5-2.2,8.5-2.2 c2.8-0.1,5.6,0.7,8.1,2.2c2.4,1.5,4.3,3.6,5.5,6.1c1.4,2.8,2,5.9,2,9C248,31.1,247.9,32,247.8,33.1z M240.6,27.6 c-0.4-2.6-1.3-4.5-2.8-6c-1.4-1.4-3.3-2.1-5.6-2.1c-2.4,0-4.4,0.7-5.9,2.2c-1.5,1.4-2.4,3.4-2.8,5.9L240.6,27.6z"/><path fill="#fff" d="M282,46.9h-8.8l-8.3-11.4l-8.2,11.4h-8.4l12.4-16.8L248.4,14h8.8l8,11l8-11h8.5l-12.1,16L282,46.9z"/><path fill="#fff" d="M195.7,74h-1.5V60.8h1.8v5c0.4-0.5,0.8-0.9,1.4-1.2c0.6-0.3,1.2-0.4,1.8-0.4c0.6,0,1.2,0.1,1.8,0.3c0.6,0.3,1,0.6,1.4,1.1 c0.7,0.9,1,2.1,1,3.5c0,1.7-0.5,3-1.4,4c-0.4,0.4-0.9,0.7-1.4,0.9c-0.5,0.2-1.1,0.3-1.6,0.3c-0.6,0-1.2-0.1-1.8-0.4 c-0.5-0.3-1-0.7-1.4-1.2L195.7,74z M201.6,69.1c0-1.2-0.3-2.1-0.9-2.7c-0.2-0.2-0.5-0.4-0.9-0.6c-0.3-0.1-0.7-0.2-1-0.2 c-0.4,0-0.8,0.1-1.2,0.2c-0.4,0.2-0.7,0.4-0.9,0.7c-0.5,0.7-0.8,1.6-0.7,2.5c0,1.2,0.3,2.2,0.9,2.8c0.2,0.3,0.6,0.5,0.9,0.6 c0.3,0.1,0.7,0.2,1.1,0.2c0.4,0,0.8-0.1,1.2-0.2c0.4-0.2,0.7-0.4,0.9-0.8C201.4,71.2,201.6,70.3,201.6,69.1L201.6,69.1z"/><path fill="#fff" d="M212.9,64.5l-3.3,9.7c-0.4,1.3-0.9,2.2-1.3,2.6c-0.2,0.3-0.5,0.5-0.8,0.6c-0.3,0.1-0.7,0.2-1,0.2c-0.4,0-0.8-0.1-1.1-0.2 V76c0.3,0.1,0.6,0.1,0.9,0.1c0.2,0,0.3,0,0.5-0.1c0.2-0.1,0.3-0.2,0.4-0.3c0.3-0.5,0.6-1.1,0.8-1.7h-0.6l-3.5-9.6h1.9l2.7,8.1 l2.7-8.1L212.9,64.5z"/><path fill="#fff" d="M237.1,60.8h-3.3v13.3h3.3V60.8z"/><path fill="#fff" d="M264.1,64.6c-0.9-0.5-1.8-0.7-2.8-0.7c-2.2,0-3.7,1.5-3.7,3.5c0,2,1.4,3.5,3.7,3.5c1,0,1.9-0.2,2.8-0.7v3.6 c-1,0.3-2,0.5-3,0.5c-3.8,0-7.1-2.6-7.1-6.9c0-4,3-6.9,7.1-6.9c1,0,2.1,0.2,3,0.5V64.6z"/><path fill="#fff" d="M229.2,64.6c-0.9-0.5-1.8-0.7-2.8-0.7c-2.2,0-3.7,1.5-3.7,3.5c0,2,1.4,3.5,3.7,3.5c1,0,1.9-0.2,2.8-0.7v3.6 c-1,0.3-2,0.5-3.1,0.5c-3.8,0-7.1-2.6-7.1-6.9c0-4,3-6.9,7.1-6.9c1,0,2.1,0.2,3.1,0.5V64.6z"/><path fill="#fff" d="M274.6,64c-0.5,0-0.9,0.1-1.3,0.3c-0.4,0.2-0.8,0.4-1.1,0.8c-0.3,0.3-0.6,0.7-0.7,1.1c-0.2,0.4-0.3,0.9-0.2,1.3 c0,0.5,0.1,0.9,0.2,1.3c0.2,0.4,0.4,0.8,0.7,1.1c0.3,0.3,0.7,0.6,1.1,0.8c0.4,0.2,0.9,0.3,1.3,0.3c0.5,0,0.9-0.1,1.3-0.3 c0.4-0.2,0.8-0.4,1.1-0.8c0.3-0.3,0.6-0.7,0.7-1.1c0.2-0.4,0.3-0.9,0.2-1.3c0-0.5-0.1-0.9-0.2-1.3c-0.2-0.4-0.4-0.8-0.7-1.1 c-0.3-0.3-0.7-0.6-1.1-0.8C275.5,64,275.1,64,274.6,64L274.6,64z M281.6,67.4c0,3.8-2.9,6.9-7,6.9c-4.1,0-7-3.1-7-6.9 c0-3.8,2.9-6.9,7-6.9C278.7,60.6,281.6,63.7,281.6,67.4z"/><path fill="#fff" d="M249.8,63.8c-0.9-0.2-1.7-0.4-2.6-0.4c-1.3,0-2.1,0.4-2.1,1.1c0,0.8,1,1.1,1.5,1.3l0.9,0.3c2.2,0.7,3.2,2.2,3.2,3.8 c0,3.3-2.9,4.4-5.5,4.4c-1.2,0-2.4-0.1-3.6-0.4v-3.1c1,0.3,2.1,0.5,3.2,0.5c1.7,0,2.4-0.5,2.4-1.2c0-0.7-0.7-1.1-1.5-1.3l-0.7-0.2 c-1.8-0.6-3.4-1.7-3.4-3.9c0-2.5,1.8-4.1,4.9-4.1c1.1,0,2.2,0.2,3.3,0.4L249.8,63.8z"/><linearGradient id="SVGID_3_" x1="3.17" x2="57.989" y1="45.204" y2="67.363" gradientTransform="matrix(1 0 0 -1 0 79.2756)" gradientUnits="userSpaceOnUse"><stop offset=".13" style="stop-color:#fff"/><stop offset=".34" style="stop-color:#fff"/><stop offset=".45" style="stop-color:#fff"/><stop offset=".51" style="stop-color:#fff"/><stop offset=".57" style="stop-color:#fff"/><stop offset=".6" style="stop-color:#fff"/><stop offset=".79" style="stop-color:#fff"/><stop offset="1" style="stop-color:#fff"/></linearGradient><path d="M16.1,25.5c0.8,2.7,1.8,5.4,3.2,7.9c0.6,1.1,1.2,2.2,2.3,2.9c0.2,0.1,0.4,0.2,0.6,0.3c1.6,0.3,2.5-1,3.1-2.1 c0.8-1.9,1.5-3.8,2.1-5.8c0.1-0.4,0.2-0.7,0.3-1.1c0.2-0.7,0.4-1.4,0.5-2.1l7.1-19c1.5-2,3.4-3.6,5.6-4.7C43,0.6,45.4,0,47.9,0 c3.5,0,7,1.2,9.8,3.4c4.7,3.5,7.4,10.5,7.4,10.5c0.4,0.9,0.6,1.9,0.6,2.9c0,0.9-0.2,1.8-0.5,2.7c-0.4,0.8-0.9,1.6-1.5,2.3 c-0.6,0.6-1.4,1.2-2.3,1.5c-0.8,0.3-1.8,0.5-2.7,0.5c-1,0-2-0.2-2.9-0.7c-0.9-0.4-1.7-1.1-2.4-1.8c0,0,0-0.1-0.1-0.1 c-0.4-0.6-0.8-1.3-1.1-2c-0.4-0.9-0.8-1.7-1.3-2.5c-0.3-0.4-0.5-0.8-0.8-1.2c-0.2-0.4-0.5-0.7-0.9-1c-0.7-0.5-1.5-0.7-2.2-0.3 l-0.1,0.1c-0.8,0.5-1.3,1.6-1.7,2.5c-1.1,2.4-1.7,4.8-2.4,7.4c-0.1,0.5-0.2,1-0.3,1.5l-3,9.6l-4.1,9.1c-1.5,1.9-3.4,3.5-5.6,4.5 c-2.2,1.1-4.6,1.6-7,1.7c-10.1,0.2-14.8-8.9-14.8-8.9c-5.7-9.4-7.4-21.8-7.8-25.8C0,15,0,14.5,0,14.5c0-1.2,0.3-2.5,1-3.5 C1.6,9.9,2.5,9,3.6,8.4C4.8,7.8,6,7.6,7.3,7.6c1.2,0,2.3,0.4,3.4,1c0.8,0.5,1.5,1.1,2,1.8c0.9,1.3,1.2,3,1.3,4.6 C14.4,18.6,15.1,22.1,16.1,25.5L16.1,25.5z" class="st1"/><radialGradient id="SVGID_4_" cx="-90.478" cy="338.657" r="1" gradientTransform="matrix(7.0811 25.2258 19.1716 -5.3817 -5812.2178 4125.9497)" gradientUnits="userSpaceOnUse"><stop offset="0" style="stop-color:#fff"/><stop offset=".14" style="stop-color:#fff;stop-opacity:.81"/><stop offset=".58" style="stop-color:#fff;stop-opacity:.23"/><stop offset=".78" style="stop-color:#fff;stop-opacity:0"/></radialGradient><path d="M16.1,25.5c0.8,2.7,1.8,5.4,3.2,7.9c0.6,1.1,1.2,2.2,2.3,2.9c0.2,0.1,0.4,0.2,0.6,0.3c1.6,0.3,2.5-1,3.1-2.1 c0.8-1.9,1.5-3.8,2.1-5.8c0.1-0.4,0.2-0.7,0.3-1.1c0.2-0.7,0.4-1.4,0.5-2.1l7.1-19c1.5-2,3.4-3.6,5.6-4.7C43,0.6,45.4,0,47.9,0 c3.5,0,7,1.2,9.8,3.4c4.7,3.5,7.4,10.5,7.4,10.5c0.4,0.9,0.6,1.9,0.6,2.9c0,0.9-0.2,1.8-0.5,2.7c-0.4,0.8-0.9,1.6-1.5,2.3 c-0.6,0.6-1.4,1.2-2.3,1.5c-0.8,0.3-1.8,0.5-2.7,0.5c-1,0-2-0.2-2.9-0.7c-0.9-0.4-1.7-1.1-2.4-1.8c0,0,0-0.1-0.1-0.1 c-0.4-0.6-0.8-1.3-1.1-2c-0.4-0.9-0.8-1.7-1.3-2.5c-0.3-0.4-0.5-0.8-0.8-1.2c-0.2-0.4-0.5-0.7-0.9-1c-0.7-0.5-1.5-0.7-2.2-0.3 l-0.1,0.1c-0.8,0.5-1.3,1.6-1.7,2.5c-1.1,2.4-1.7,4.8-2.4,7.4c-0.1,0.5-0.2,1-0.3,1.5l-3,9.6l-4.1,9.1c-1.5,1.9-3.4,3.5-5.6,4.5 c-2.2,1.1-4.6,1.6-7,1.7c-10.1,0.2-14.8-8.9-14.8-8.9c-5.7-9.4-7.4-21.8-7.8-25.8C0,15,0,14.5,0,14.5c0-1.2,0.3-2.5,1-3.5 C1.6,9.9,2.5,9,3.6,8.4C4.8,7.8,6,7.6,7.3,7.6c1.2,0,2.3,0.4,3.4,1c0.8,0.5,1.5,1.1,2,1.8c0.9,1.3,1.2,3,1.3,4.6 C14.4,18.6,15.1,22.1,16.1,25.5L16.1,25.5z" class="st2"/><radialGradient id="SVGID_5_" cx="-86.555" cy="345.159" r="1" gradientTransform="matrix(-0.3543 17.7138 13.4606 0.2692 -4633.1011 1459.4431)" gradientUnits="userSpaceOnUse"><stop offset="0" style="stop-color:#fff"/><stop offset=".25" style="stop-color:#fff;stop-opacity:.7"/><stop offset=".71" style="stop-color:#fff;stop-opacity:.2"/><stop offset=".92" style="stop-color:#fff;stop-opacity:0"/></radialGradient><path d="M16.1,25.5c0.8,2.7,1.8,5.4,3.2,7.9c0.6,1.1,1.2,2.2,2.3,2.9c0.2,0.1,0.4,0.2,0.6,0.3c1.6,0.3,2.5-1,3.1-2.1 c0.8-1.9,1.5-3.8,2.1-5.8c0.1-0.4,0.2-0.7,0.3-1.1c0.2-0.7,0.4-1.4,0.5-2.1l7.1-19c1.5-2,3.4-3.6,5.6-4.7C43,0.6,45.4,0,47.9,0 c3.5,0,7,1.2,9.8,3.4c4.7,3.5,7.4,10.5,7.4,10.5c0.4,0.9,0.6,1.9,0.6,2.9c0,0.9-0.2,1.8-0.5,2.7c-0.4,0.8-0.9,1.6-1.5,2.3 c-0.6,0.6-1.4,1.2-2.3,1.5c-0.8,0.3-1.8,0.5-2.7,0.5c-1,0-2-0.2-2.9-0.7c-0.9-0.4-1.7-1.1-2.4-1.8c0,0,0-0.1-0.1-0.1 c-0.4-0.6-0.8-1.3-1.1-2c-0.4-0.9-0.8-1.7-1.3-2.5c-0.3-0.4-0.5-0.8-0.8-1.2c-0.2-0.4-0.5-0.7-0.9-1c-0.7-0.5-1.5-0.7-2.2-0.3 l-0.1,0.1c-0.8,0.5-1.3,1.6-1.7,2.5c-1.1,2.4-1.7,4.8-2.4,7.4c-0.1,0.5-0.2,1-0.3,1.5l-3,9.6l-4.1,9.1c-1.5,1.9-3.4,3.5-5.6,4.5 c-2.2,1.1-4.6,1.6-7,1.7c-10.1,0.2-14.8-8.9-14.8-8.9c-5.7-9.4-7.4-21.8-7.8-25.8C0,15,0,14.5,0,14.5c0-1.2,0.3-2.5,1-3.5 C1.6,9.9,2.5,9,3.6,8.4C4.8,7.8,6,7.6,7.3,7.6c1.2,0,2.3,0.4,3.4,1c0.8,0.5,1.5,1.1,2,1.8c0.9,1.3,1.2,3,1.3,4.6 C14.4,18.6,15.1,22.1,16.1,25.5L16.1,25.5z" class="st3"/><radialGradient id="SVGID_6_" cx="-85.234" cy="345.349" r="1" gradientTransform="matrix(0.4035 16.5107 11.7225 -0.2865 -3971.1855 1526.0898)" gradientUnits="userSpaceOnUse"><stop offset="0" style="stop-color:#227b60"/><stop offset=".07" style="stop-color:#fff;stop-opacity:.9"/><stop offset=".34" style="stop-color:#fff;stop-opacity:.51"/><stop offset=".59" style="stop-color:#fff;stop-opacity:.23"/><stop offset=".79" style="stop-color:#fff;stop-opacity:6.000000e-02"/><stop offset=".92" style="stop-color:#fff;stop-opacity:0"/></radialGradient><path d="M16.1,25.5c0.8,2.7,1.8,5.4,3.2,7.9c0.6,1.1,1.2,2.2,2.3,2.9c0.2,0.1,0.4,0.2,0.6,0.3c1.6,0.3,2.5-1,3.1-2.1 c0.8-1.9,1.5-3.8,2.1-5.8c0.1-0.4,0.2-0.7,0.3-1.1c0.2-0.7,0.4-1.4,0.5-2.1l7.1-19c1.5-2,3.4-3.6,5.6-4.7C43,0.6,45.4,0,47.9,0 c3.5,0,7,1.2,9.8,3.4c4.7,3.5,7.4,10.5,7.4,10.5c0.4,0.9,0.6,1.9,0.6,2.9c0,0.9-0.2,1.8-0.5,2.7c-0.4,0.8-0.9,1.6-1.5,2.3 c-0.6,0.6-1.4,1.2-2.3,1.5c-0.8,0.3-1.8,0.5-2.7,0.5c-1,0-2-0.2-2.9-0.7c-0.9-0.4-1.7-1.1-2.4-1.8c0,0,0-0.1-0.1-0.1 c-0.4-0.6-0.8-1.3-1.1-2c-0.4-0.9-0.8-1.7-1.3-2.5c-0.3-0.4-0.5-0.8-0.8-1.2c-0.2-0.4-0.5-0.7-0.9-1c-0.7-0.5-1.5-0.7-2.2-0.3 l-0.1,0.1c-0.8,0.5-1.3,1.6-1.7,2.5c-1.1,2.4-1.7,4.8-2.4,7.4c-0.1,0.5-0.2,1-0.3,1.5l-3,9.6l-4.1,9.1c-1.5,1.9-3.4,3.5-5.6,4.5 c-2.2,1.1-4.6,1.6-7,1.7c-10.1,0.2-14.8-8.9-14.8-8.9c-5.7-9.4-7.4-21.8-7.8-25.8C0,15,0,14.5,0,14.5c0-1.2,0.3-2.5,1-3.5 C1.6,9.9,2.5,9,3.6,8.4C4.8,7.8,6,7.6,7.3,7.6c1.2,0,2.3,0.4,3.4,1c0.8,0.5,1.5,1.1,2,1.8c0.9,1.3,1.2,3,1.3,4.6 C14.4,18.6,15.1,22.1,16.1,25.5L16.1,25.5z" class="st4"/><radialGradient id="SVGID_7_" cx="-81.473" cy="347.274" r="1" gradientTransform="matrix(0.3258 13.3312 9.4652 -0.2313 -3217.4163 1185.6022)" gradientUnits="userSpaceOnUse"><stop offset="0" style="stop-color:#fff"/><stop offset=".36" style="stop-color:#fff;stop-opacity:.63"/><stop offset=".92" style="stop-color:#fff;stop-opacity:0"/></radialGradient><path d="M16.1,25.5c0.8,2.7,1.8,5.4,3.2,7.9c0.6,1.1,1.2,2.2,2.3,2.9c0.2,0.1,0.4,0.2,0.6,0.3c1.6,0.3,2.5-1,3.1-2.1 c0.8-1.9,1.5-3.8,2.1-5.8c0.1-0.4,0.2-0.7,0.3-1.1c0.2-0.7,0.4-1.4,0.5-2.1l7.1-19c1.5-2,3.4-3.6,5.6-4.7C43,0.6,45.4,0,47.9,0 c3.5,0,7,1.2,9.8,3.4c4.7,3.5,7.4,10.5,7.4,10.5c0.4,0.9,0.6,1.9,0.6,2.9c0,0.9-0.2,1.8-0.5,2.7c-0.4,0.8-0.9,1.6-1.5,2.3 c-0.6,0.6-1.4,1.2-2.3,1.5c-0.8,0.3-1.8,0.5-2.7,0.5c-1,0-2-0.2-2.9-0.7c-0.9-0.4-1.7-1.1-2.4-1.8c0,0,0-0.1-0.1-0.1 c-0.4-0.6-0.8-1.3-1.1-2c-0.4-0.9-0.8-1.7-1.3-2.5c-0.3-0.4-0.5-0.8-0.8-1.2c-0.2-0.4-0.5-0.7-0.9-1c-0.7-0.5-1.5-0.7-2.2-0.3 l-0.1,0.1c-0.8,0.5-1.3,1.6-1.7,2.5c-1.1,2.4-1.7,4.8-2.4,7.4c-0.1,0.5-0.2,1-0.3,1.5l-3,9.6l-4.1,9.1c-1.5,1.9-3.4,3.5-5.6,4.5 c-2.2,1.1-4.6,1.6-7,1.7c-10.1,0.2-14.8-8.9-14.8-8.9c-5.7-9.4-7.4-21.8-7.8-25.8C0,15,0,14.5,0,14.5c0-1.2,0.3-2.5,1-3.5 C1.6,9.9,2.5,9,3.6,8.4C4.8,7.8,6,7.6,7.3,7.6c1.2,0,2.3,0.4,3.4,1c0.8,0.5,1.5,1.1,2,1.8c0.9,1.3,1.2,3,1.3,4.6 C14.4,18.6,15.1,22.1,16.1,25.5L16.1,25.5z" class="st5"/><radialGradient id="SVGID_8_" cx="-76.517" cy="351.183" r="1" gradientTransform="matrix(0.2599 10.6324 6.8048 -0.1663 -2326.21 891.8405)" gradientUnits="userSpaceOnUse"><stop offset="0" style="stop-color:#fff"/><stop offset=".15" style="stop-color:#fff;stop-opacity:.93"/><stop offset=".38" style="stop-color:#fff;stop-opacity:.74"/><stop offset=".67" style="stop-color:#fff;stop-opacity:.43"/><stop offset="1" style="stop-color:#fff;stop-opacity:0"/></radialGradient><path d="M16.1,25.5c0.8,2.7,1.8,5.4,3.2,7.9c0.6,1.1,1.2,2.2,2.3,2.9c0.2,0.1,0.4,0.2,0.6,0.3c1.6,0.3,2.5-1,3.1-2.1 c0.8-1.9,1.5-3.8,2.1-5.8c0.1-0.4,0.2-0.7,0.3-1.1c0.2-0.7,0.4-1.4,0.5-2.1l7.1-19c1.5-2,3.4-3.6,5.6-4.7C43,0.6,45.4,0,47.9,0 c3.5,0,7,1.2,9.8,3.4c4.7,3.5,7.4,10.5,7.4,10.5c0.4,0.9,0.6,1.9,0.6,2.9c0,0.9-0.2,1.8-0.5,2.7c-0.4,0.8-0.9,1.6-1.5,2.3 c-0.6,0.6-1.4,1.2-2.3,1.5c-0.8,0.3-1.8,0.5-2.7,0.5c-1,0-2-0.2-2.9-0.7c-0.9-0.4-1.7-1.1-2.4-1.8c0,0,0-0.1-0.1-0.1 c-0.4-0.6-0.8-1.3-1.1-2c-0.4-0.9-0.8-1.7-1.3-2.5c-0.3-0.4-0.5-0.8-0.8-1.2c-0.2-0.4-0.5-0.7-0.9-1c-0.7-0.5-1.5-0.7-2.2-0.3 l-0.1,0.1c-0.8,0.5-1.3,1.6-1.7,2.5c-1.1,2.4-1.7,4.8-2.4,7.4c-0.1,0.5-0.2,1-0.3,1.5l-3,9.6l-4.1,9.1c-1.5,1.9-3.4,3.5-5.6,4.5 c-2.2,1.1-4.6,1.6-7,1.7c-10.1,0.2-14.8-8.9-14.8-8.9c-5.7-9.4-7.4-21.8-7.8-25.8C0,15,0,14.5,0,14.5c0-1.2,0.3-2.5,1-3.5 C1.6,9.9,2.5,9,3.6,8.4C4.8,7.8,6,7.6,7.3,7.6c1.2,0,2.3,0.4,3.4,1c0.8,0.5,1.5,1.1,2,1.8c0.9,1.3,1.2,3,1.3,4.6 C14.4,18.6,15.1,22.1,16.1,25.5L16.1,25.5z" class="st6"/><radialGradient id="SVGID_9_" cx="-89.517" cy="322.06" r="1" gradientTransform="matrix(15.6592 6.9065 5.1799 -11.7444 -221.4193 4422.2559)" gradientUnits="userSpaceOnUse"><stop offset="0" style="stop-color:#fff"/><stop offset=".36" style="stop-color:#fff;stop-opacity:.56"/><stop offset=".72" style="stop-color:#fff;stop-opacity:.16"/><stop offset=".9" style="stop-color:#fff;stop-opacity:0"/></radialGradient><path d="M16.1,25.5c0.8,2.7,1.8,5.4,3.2,7.9c0.6,1.1,1.2,2.2,2.3,2.9c0.2,0.1,0.4,0.2,0.6,0.3c1.6,0.3,2.5-1,3.1-2.1 c0.8-1.9,1.5-3.8,2.1-5.8c0.1-0.4,0.2-0.7,0.3-1.1c0.2-0.7,0.4-1.4,0.5-2.1l7.1-19c1.5-2,3.4-3.6,5.6-4.7C43,0.6,45.4,0,47.9,0 c3.5,0,7,1.2,9.8,3.4c4.7,3.5,7.4,10.5,7.4,10.5c0.4,0.9,0.6,1.9,0.6,2.9c0,0.9-0.2,1.8-0.5,2.7c-0.4,0.8-0.9,1.6-1.5,2.3 c-0.6,0.6-1.4,1.2-2.3,1.5c-0.8,0.3-1.8,0.5-2.7,0.5c-1,0-2-0.2-2.9-0.7c-0.9-0.4-1.7-1.1-2.4-1.8c0,0,0-0.1-0.1-0.1 c-0.4-0.6-0.8-1.3-1.1-2c-0.4-0.9-0.8-1.7-1.3-2.5c-0.3-0.4-0.5-0.8-0.8-1.2c-0.2-0.4-0.5-0.7-0.9-1c-0.7-0.5-1.5-0.7-2.2-0.3 l-0.1,0.1c-0.8,0.5-1.3,1.6-1.7,2.5c-1.1,2.4-1.7,4.8-2.4,7.4c-0.1,0.5-0.2,1-0.3,1.5l-3,9.6l-4.1,9.1c-1.5,1.9-3.4,3.5-5.6,4.5 c-2.2,1.1-4.6,1.6-7,1.7c-10.1,0.2-14.8-8.9-14.8-8.9c-5.7-9.4-7.4-21.8-7.8-25.8C0,15,0,14.5,0,14.5c0-1.2,0.3-2.5,1-3.5 C1.6,9.9,2.5,9,3.6,8.4C4.8,7.8,6,7.6,7.3,7.6c1.2,0,2.3,0.4,3.4,1c0.8,0.5,1.5,1.1,2,1.8c0.9,1.3,1.2,3,1.3,4.6 C14.4,18.6,15.1,22.1,16.1,25.5L16.1,25.5z" class="st7"/><radialGradient id="SVGID_10_" cx="-90.86" cy="329.977" r="1" gradientTransform="matrix(18.6342 13.1803 12.0515 -17.0383 -2244.46 6813.6001)" gradientUnits="userSpaceOnUse"><stop offset="0" style="stop-color:#fff"/><stop offset=".07" style="stop-color:#fff;stop-opacity:.9"/><stop offset=".41" style="stop-color:#fff;stop-opacity:.42"/><stop offset=".65" style="stop-color:#fff;stop-opacity:.12"/><stop offset=".76" style="stop-color:#fff;stop-opacity:0"/></radialGradient><path d="M16.1,25.5c0.8,2.7,1.8,5.4,3.2,7.9c0.6,1.1,1.2,2.2,2.3,2.9c0.2,0.1,0.4,0.2,0.6,0.3c1.6,0.3,2.5-1,3.1-2.1 c0.8-1.9,1.5-3.8,2.1-5.8c0.1-0.4,0.2-0.7,0.3-1.1c0.2-0.7,0.4-1.4,0.5-2.1l7.1-19c1.5-2,3.4-3.6,5.6-4.7C43,0.6,45.4,0,47.9,0 c3.5,0,7,1.2,9.8,3.4c4.7,3.5,7.4,10.5,7.4,10.5c0.4,0.9,0.6,1.9,0.6,2.9c0,0.9-0.2,1.8-0.5,2.7c-0.4,0.8-0.9,1.6-1.5,2.3 c-0.6,0.6-1.4,1.2-2.3,1.5c-0.8,0.3-1.8,0.5-2.7,0.5c-1,0-2-0.2-2.9-0.7c-0.9-0.4-1.7-1.1-2.4-1.8c0,0,0-0.1-0.1-0.1 c-0.4-0.6-0.8-1.3-1.1-2c-0.4-0.9-0.8-1.7-1.3-2.5c-0.3-0.4-0.5-0.8-0.8-1.2c-0.2-0.4-0.5-0.7-0.9-1c-0.7-0.5-1.5-0.7-2.2-0.3 l-0.1,0.1c-0.8,0.5-1.3,1.6-1.7,2.5c-1.1,2.4-1.7,4.8-2.4,7.4c-0.1,0.5-0.2,1-0.3,1.5l-3,9.6l-4.1,9.1c-1.5,1.9-3.4,3.5-5.6,4.5 c-2.2,1.1-4.6,1.6-7,1.7c-10.1,0.2-14.8-8.9-14.8-8.9c-5.7-9.4-7.4-21.8-7.8-25.8C0,15,0,14.5,0,14.5c0-1.2,0.3-2.5,1-3.5 C1.6,9.9,2.5,9,3.6,8.4C4.8,7.8,6,7.6,7.3,7.6c1.2,0,2.3,0.4,3.4,1c0.8,0.5,1.5,1.1,2,1.8c0.9,1.3,1.2,3,1.3,4.6 C14.4,18.6,15.1,22.1,16.1,25.5L16.1,25.5z" class="st8"/><radialGradient id="SVGID_11_" cx="-100.943" cy="337.222" r="1" gradientTransform="matrix(3310.5498 2341.6067 1643.2212 -2323.1768 -257383.0312 968934.0625)" gradientUnits="userSpaceOnUse"><stop offset="0" style="stop-color:#fff"/><stop offset=".07" style="stop-color:#fff;stop-opacity:.9"/><stop offset=".41" style="stop-color:#fff;stop-opacity:.42"/><stop offset=".65" style="stop-color:#fff;stop-opacity:.12"/><stop offset=".76" style="stop-color:#fff;stop-opacity:0"/></radialGradient><path d="M16.1,25.5c0.8,2.7,1.8,5.4,3.2,7.9c0.6,1.1,1.2,2.2,2.3,2.9c0.2,0.1,0.4,0.2,0.6,0.3c1.6,0.3,2.5-1,3.1-2.1 c0.8-1.9,1.5-3.8,2.1-5.8c0.1-0.4,0.2-0.7,0.3-1.1c0.2-0.7,0.4-1.4,0.5-2.1l7.1-19c1.5-2,3.4-3.6,5.6-4.7C43,0.6,45.4,0,47.9,0 c3.5,0,7,1.2,9.8,3.4c4.7,3.5,7.4,10.5,7.4,10.5c0.4,0.9,0.6,1.9,0.6,2.9c0,0.9-0.2,1.8-0.5,2.7c-0.4,0.8-0.9,1.6-1.5,2.3 c-0.6,0.6-1.4,1.2-2.3,1.5c-0.8,0.3-1.8,0.5-2.7,0.5c-1,0-2-0.2-2.9-0.7c-0.9-0.4-1.7-1.1-2.4-1.8c0,0,0-0.1-0.1-0.1 c-0.4-0.6-0.8-1.3-1.1-2c-0.4-0.9-0.8-1.7-1.3-2.5c-0.3-0.4-0.5-0.8-0.8-1.2c-0.2-0.4-0.5-0.7-0.9-1c-0.7-0.5-1.5-0.7-2.2-0.3 l-0.1,0.1c-0.8,0.5-1.3,1.6-1.7,2.5c-1.1,2.4-1.7,4.8-2.4,7.4c-0.1,0.5-0.2,1-0.3,1.5l-3,9.6l-4.1,9.1c-1.5,1.9-3.4,3.5-5.6,4.5 c-2.2,1.1-4.6,1.6-7,1.7c-10.1,0.2-14.8-8.9-14.8-8.9c-5.7-9.4-7.4-21.8-7.8-25.8C0,15,0,14.5,0,14.5c0-1.2,0.3-2.5,1-3.5 C1.6,9.9,2.5,9,3.6,8.4C4.8,7.8,6,7.6,7.3,7.6c1.2,0,2.3,0.4,3.4,1c0.8,0.5,1.5,1.1,2,1.8c0.9,1.3,1.2,3,1.3,4.6 C14.4,18.6,15.1,22.1,16.1,25.5L16.1,25.5z" class="st9"/><radialGradient id="SVGID_12_" cx="-89.373" cy="343.236" r="1" gradientTransform="matrix(-3.8314 19.7622 24.4207 4.7345 -8676.1631 167.1098)" gradientUnits="userSpaceOnUse"><stop offset="0" style="stop-color:#fff;stop-opacity:.8"/><stop offset=".06" style="stop-color:#fff;stop-opacity:.65"/><stop offset=".21" style="stop-color:#fff;stop-opacity:.37"/><stop offset=".35" style="stop-color:#fff;stop-opacity:.17"/><stop offset=".47" style="stop-color:#fff;stop-opacity:4.000000e-02"/><stop offset=".56" style="stop-color:#fff;stop-opacity:0"/></radialGradient><path d="M16.1,25.5c0.8,2.7,1.8,5.4,3.2,7.9c0.6,1.1,1.2,2.2,2.3,2.9c0.2,0.1,0.4,0.2,0.6,0.3c1.6,0.3,2.5-1,3.1-2.1 c0.8-1.9,1.5-3.8,2.1-5.8c0.1-0.4,0.2-0.7,0.3-1.1c0.2-0.7,0.4-1.4,0.5-2.1l7.1-19c1.5-2,3.4-3.6,5.6-4.7C43,0.6,45.4,0,47.9,0 c3.5,0,7,1.2,9.8,3.4c4.7,3.5,7.4,10.5,7.4,10.5c0.4,0.9,0.6,1.9,0.6,2.9c0,0.9-0.2,1.8-0.5,2.7c-0.4,0.8-0.9,1.6-1.5,2.3 c-0.6,0.6-1.4,1.2-2.3,1.5c-0.8,0.3-1.8,0.5-2.7,0.5c-1,0-2-0.2-2.9-0.7c-0.9-0.4-1.7-1.1-2.4-1.8c0,0,0-0.1-0.1-0.1 c-0.4-0.6-0.8-1.3-1.1-2c-0.4-0.9-0.8-1.7-1.3-2.5c-0.3-0.4-0.5-0.8-0.8-1.2c-0.2-0.4-0.5-0.7-0.9-1c-0.7-0.5-1.5-0.7-2.2-0.3 l-0.1,0.1c-0.8,0.5-1.3,1.6-1.7,2.5c-1.1,2.4-1.7,4.8-2.4,7.4c-0.1,0.5-0.2,1-0.3,1.5l-3,9.6l-4.1,9.1c-1.5,1.9-3.4,3.5-5.6,4.5 c-2.2,1.1-4.6,1.6-7,1.7c-10.1,0.2-14.8-8.9-14.8-8.9c-5.7-9.4-7.4-21.8-7.8-25.8C0,15,0,14.5,0,14.5c0-1.2,0.3-2.5,1-3.5 C1.6,9.9,2.5,9,3.6,8.4C4.8,7.8,6,7.6,7.3,7.6c1.2,0,2.3,0.4,3.4,1c0.8,0.5,1.5,1.1,2,1.8c0.9,1.3,1.2,3,1.3,4.6 C14.4,18.6,15.1,22.1,16.1,25.5L16.1,25.5z" class="st10"/><radialGradient id="SVGID_13_" cx="-106.177" cy="328.782" r="1" gradientTransform="matrix(16.618 -20.3902 -22.0214 -17.9474 9041.8467 3762.7642)" gradientUnits="userSpaceOnUse"><stop offset="0" style="stop-color:#167c8a"/><stop offset=".04" style="stop-color:#fff;stop-opacity:.93"/><stop offset=".33" style="stop-color:#fff;stop-opacity:.43"/><stop offset=".54" style="stop-color:#fff;stop-opacity:.12"/><stop offset=".65" style="stop-color:#fff;stop-opacity:0"/></radialGradient><path d="M16.1,25.5c0.8,2.7,1.8,5.4,3.2,7.9c0.6,1.1,1.2,2.2,2.3,2.9c0.2,0.1,0.4,0.2,0.6,0.3c1.6,0.3,2.5-1,3.1-2.1 c0.8-1.9,1.5-3.8,2.1-5.8c0.1-0.4,0.2-0.7,0.3-1.1c0.2-0.7,0.4-1.4,0.5-2.1l7.1-19c1.5-2,3.4-3.6,5.6-4.7C43,0.6,45.4,0,47.9,0 c3.5,0,7,1.2,9.8,3.4c4.7,3.5,7.4,10.5,7.4,10.5c0.4,0.9,0.6,1.9,0.6,2.9c0,0.9-0.2,1.8-0.5,2.7c-0.4,0.8-0.9,1.6-1.5,2.3 c-0.6,0.6-1.4,1.2-2.3,1.5c-0.8,0.3-1.8,0.5-2.7,0.5c-1,0-2-0.2-2.9-0.7c-0.9-0.4-1.7-1.1-2.4-1.8c0,0,0-0.1-0.1-0.1 c-0.4-0.6-0.8-1.3-1.1-2c-0.4-0.9-0.8-1.7-1.3-2.5c-0.3-0.4-0.5-0.8-0.8-1.2c-0.2-0.4-0.5-0.7-0.9-1c-0.7-0.5-1.5-0.7-2.2-0.3 l-0.1,0.1c-0.8,0.5-1.3,1.6-1.7,2.5c-1.1,2.4-1.7,4.8-2.4,7.4c-0.1,0.5-0.2,1-0.3,1.5l-3,9.6l-4.1,9.1c-1.5,1.9-3.4,3.5-5.6,4.5 c-2.2,1.1-4.6,1.6-7,1.7c-10.1,0.2-14.8-8.9-14.8-8.9c-5.7-9.4-7.4-21.8-7.8-25.8C0,15,0,14.5,0,14.5c0-1.2,0.3-2.5,1-3.5 C1.6,9.9,2.5,9,3.6,8.4C4.8,7.8,6,7.6,7.3,7.6c1.2,0,2.3,0.4,3.4,1c0.8,0.5,1.5,1.1,2,1.8c0.9,1.3,1.2,3,1.3,4.6 C14.4,18.6,15.1,22.1,16.1,25.5L16.1,25.5z" class="st11"/><radialGradient id="SVGID_14_" cx="-102.927" cy="323.828" r="1" gradientTransform="matrix(21.842 -13.4688 -10.6404 -17.2552 5729.3394 4230.9814)" gradientUnits="userSpaceOnUse"><stop offset=".05" style="stop-color:#fff"/><stop offset=".11" style="stop-color:#fff;stop-opacity:.8"/><stop offset=".21" style="stop-color:#fff;stop-opacity:.52"/><stop offset=".32" style="stop-color:#fff;stop-opacity:.29"/><stop offset=".42" style="stop-color:#fff;stop-opacity:.13"/><stop offset=".51" style="stop-color:#fff;stop-opacity:3.000000e-02"/><stop offset=".6" style="stop-color:#fff;stop-opacity:0"/></radialGradient><path d="M16.1,25.5c0.8,2.7,1.8,5.4,3.2,7.9c0.6,1.1,1.2,2.2,2.3,2.9c0.2,0.1,0.4,0.2,0.6,0.3c1.6,0.3,2.5-1,3.1-2.1 c0.8-1.9,1.5-3.8,2.1-5.8c0.1-0.4,0.2-0.7,0.3-1.1c0.2-0.7,0.4-1.4,0.5-2.1l7.1-19c1.5-2,3.4-3.6,5.6-4.7C43,0.6,45.4,0,47.9,0 c3.5,0,7,1.2,9.8,3.4c4.7,3.5,7.4,10.5,7.4,10.5c0.4,0.9,0.6,1.9,0.6,2.9c0,0.9-0.2,1.8-0.5,2.7c-0.4,0.8-0.9,1.6-1.5,2.3 c-0.6,0.6-1.4,1.2-2.3,1.5c-0.8,0.3-1.8,0.5-2.7,0.5c-1,0-2-0.2-2.9-0.7c-0.9-0.4-1.7-1.1-2.4-1.8c0,0,0-0.1-0.1-0.1 c-0.4-0.6-0.8-1.3-1.1-2c-0.4-0.9-0.8-1.7-1.3-2.5c-0.3-0.4-0.5-0.8-0.8-1.2c-0.2-0.4-0.5-0.7-0.9-1c-0.7-0.5-1.5-0.7-2.2-0.3 l-0.1,0.1c-0.8,0.5-1.3,1.6-1.7,2.5c-1.1,2.4-1.7,4.8-2.4,7.4c-0.1,0.5-0.2,1-0.3,1.5l-3,9.6l-4.1,9.1c-1.5,1.9-3.4,3.5-5.6,4.5 c-2.2,1.1-4.6,1.6-7,1.7c-10.1,0.2-14.8-8.9-14.8-8.9c-5.7-9.4-7.4-21.8-7.8-25.8C0,15,0,14.5,0,14.5c0-1.2,0.3-2.5,1-3.5 C1.6,9.9,2.5,9,3.6,8.4C4.8,7.8,6,7.6,7.3,7.6c1.2,0,2.3,0.4,3.4,1c0.8,0.5,1.5,1.1,2,1.8c0.9,1.3,1.2,3,1.3,4.6 C14.4,18.6,15.1,22.1,16.1,25.5L16.1,25.5z" class="st12"/><radialGradient id="SVGID_15_" cx="-118.118" cy="344.829" r="1" gradientTransform="matrix(-9.9371 -11.6188 -9.1488 7.8246 2011.2411 -4041.2964)" gradientUnits="userSpaceOnUse"><stop offset=".26" style="stop-color:#fff"/><stop offset=".27" style="stop-color:#fff;stop-opacity:.98"/><stop offset=".38" style="stop-color:#fff;stop-opacity:.68"/><stop offset=".5" style="stop-color:#fff;stop-opacity:.43"/><stop offset=".62" style="stop-color:#fff;stop-opacity:.24"/><stop offset=".74" style="stop-color:#fff;stop-opacity:.11"/><stop offset=".86" style="stop-color:#fff;stop-opacity:3.000000e-02"/><stop offset="1" style="stop-color:#fff;stop-opacity:0"/></radialGradient><path d="M16.1,25.5c0.8,2.7,1.8,5.4,3.2,7.9c0.6,1.1,1.2,2.2,2.3,2.9c0.2,0.1,0.4,0.2,0.6,0.3c1.6,0.3,2.5-1,3.1-2.1 c0.8-1.9,1.5-3.8,2.1-5.8c0.1-0.4,0.2-0.7,0.3-1.1c0.2-0.7,0.4-1.4,0.5-2.1l7.1-19c1.5-2,3.4-3.6,5.6-4.7C43,0.6,45.4,0,47.9,0 c3.5,0,7,1.2,9.8,3.4c4.7,3.5,7.4,10.5,7.4,10.5c0.4,0.9,0.6,1.9,0.6,2.9c0,0.9-0.2,1.8-0.5,2.7c-0.4,0.8-0.9,1.6-1.5,2.3 c-0.6,0.6-1.4,1.2-2.3,1.5c-0.8,0.3-1.8,0.5-2.7,0.5c-1,0-2-0.2-2.9-0.7c-0.9-0.4-1.7-1.1-2.4-1.8c0,0,0-0.1-0.1-0.1 c-0.4-0.6-0.8-1.3-1.1-2c-0.4-0.9-0.8-1.7-1.3-2.5c-0.3-0.4-0.5-0.8-0.8-1.2c-0.2-0.4-0.5-0.7-0.9-1c-0.7-0.5-1.5-0.7-2.2-0.3 l-0.1,0.1c-0.8,0.5-1.3,1.6-1.7,2.5c-1.1,2.4-1.7,4.8-2.4,7.4c-0.1,0.5-0.2,1-0.3,1.5l-3,9.6l-4.1,9.1c-1.5,1.9-3.4,3.5-5.6,4.5 c-2.2,1.1-4.6,1.6-7,1.7c-10.1,0.2-14.8-8.9-14.8-8.9c-5.7-9.4-7.4-21.8-7.8-25.8C0,15,0,14.5,0,14.5c0-1.2,0.3-2.5,1-3.5 C1.6,9.9,2.5,9,3.6,8.4C4.8,7.8,6,7.6,7.3,7.6c1.2,0,2.3,0.4,3.4,1c0.8,0.5,1.5,1.1,2,1.8c0.9,1.3,1.2,3,1.3,4.6 C14.4,18.6,15.1,22.1,16.1,25.5L16.1,25.5z" class="st13"/><radialGradient id="SVGID_16_" cx="-110.15" cy="354.291" r="1" gradientTransform="matrix(-14.2375 -1.7204 -1.7204 14.2375 -932.2625 -5199.9551)" gradientUnits="userSpaceOnUse"><stop offset="0" style="stop-color:#fff"/><stop offset=".11" style="stop-color:#fff;stop-opacity:.73"/><stop offset=".27" style="stop-color:#fff;stop-opacity:.41"/><stop offset=".42" style="stop-color:#fff;stop-opacity:.18"/><stop offset=".55" style="stop-color:#fff;stop-opacity:5.000000e-02"/><stop offset=".66" style="stop-color:#fff;stop-opacity:0"/></radialGradient><path d="M16.1,25.5c0.8,2.7,1.8,5.4,3.2,7.9c0.6,1.1,1.2,2.2,2.3,2.9c0.2,0.1,0.4,0.2,0.6,0.3c1.6,0.3,2.5-1,3.1-2.1 c0.8-1.9,1.5-3.8,2.1-5.8c0.1-0.4,0.2-0.7,0.3-1.1c0.2-0.7,0.4-1.4,0.5-2.1l7.1-19c1.5-2,3.4-3.6,5.6-4.7C43,0.6,45.4,0,47.9,0 c3.5,0,7,1.2,9.8,3.4c4.7,3.5,7.4,10.5,7.4,10.5c0.4,0.9,0.6,1.9,0.6,2.9c0,0.9-0.2,1.8-0.5,2.7c-0.4,0.8-0.9,1.6-1.5,2.3 c-0.6,0.6-1.4,1.2-2.3,1.5c-0.8,0.3-1.8,0.5-2.7,0.5c-1,0-2-0.2-2.9-0.7c-0.9-0.4-1.7-1.1-2.4-1.8c0,0,0-0.1-0.1-0.1 c-0.4-0.6-0.8-1.3-1.1-2c-0.4-0.9-0.8-1.7-1.3-2.5c-0.3-0.4-0.5-0.8-0.8-1.2c-0.2-0.4-0.5-0.7-0.9-1c-0.7-0.5-1.5-0.7-2.2-0.3 l-0.1,0.1c-0.8,0.5-1.3,1.6-1.7,2.5c-1.1,2.4-1.7,4.8-2.4,7.4c-0.1,0.5-0.2,1-0.3,1.5l-3,9.6l-4.1,9.1c-1.5,1.9-3.4,3.5-5.6,4.5 c-2.2,1.1-4.6,1.6-7,1.7c-10.1,0.2-14.8-8.9-14.8-8.9c-5.7-9.4-7.4-21.8-7.8-25.8C0,15,0,14.5,0,14.5c0-1.2,0.3-2.5,1-3.5 C1.6,9.9,2.5,9,3.6,8.4C4.8,7.8,6,7.6,7.3,7.6c1.2,0,2.3,0.4,3.4,1c0.8,0.5,1.5,1.1,2,1.8c0.9,1.3,1.2,3,1.3,4.6 C14.4,18.6,15.1,22.1,16.1,25.5L16.1,25.5z" class="st14"/><radialGradient id="SVGID_17_" cx="-128.361" cy="341.819" r="1" gradientTransform="matrix(-4.9112 -8.7444 -7.3453 4.1254 1906.4636 -2496.6357)" gradientUnits="userSpaceOnUse"><stop offset=".13" style="stop-color:#fff"/><stop offset=".24" style="stop-color:#fff;stop-opacity:.79"/><stop offset=".45" style="stop-color:#fff;stop-opacity:.45"/><stop offset=".65" style="stop-color:#fff;stop-opacity:.2"/><stop offset=".82" style="stop-color:#fff;stop-opacity:5.000000e-02"/><stop offset=".95" style="stop-color:#fff;stop-opacity:0"/></radialGradient><path d="M16.1,25.5c0.8,2.7,1.8,5.4,3.2,7.9c0.6,1.1,1.2,2.2,2.3,2.9c0.2,0.1,0.4,0.2,0.6,0.3c1.6,0.3,2.5-1,3.1-2.1 c0.8-1.9,1.5-3.8,2.1-5.8c0.1-0.4,0.2-0.7,0.3-1.1c0.2-0.7,0.4-1.4,0.5-2.1l7.1-19c1.5-2,3.4-3.6,5.6-4.7C43,0.6,45.4,0,47.9,0 c3.5,0,7,1.2,9.8,3.4c4.7,3.5,7.4,10.5,7.4,10.5c0.4,0.9,0.6,1.9,0.6,2.9c0,0.9-0.2,1.8-0.5,2.7c-0.4,0.8-0.9,1.6-1.5,2.3 c-0.6,0.6-1.4,1.2-2.3,1.5c-0.8,0.3-1.8,0.5-2.7,0.5c-1,0-2-0.2-2.9-0.7c-0.9-0.4-1.7-1.1-2.4-1.8c0,0,0-0.1-0.1-0.1 c-0.4-0.6-0.8-1.3-1.1-2c-0.4-0.9-0.8-1.7-1.3-2.5c-0.3-0.4-0.5-0.8-0.8-1.2c-0.2-0.4-0.5-0.7-0.9-1c-0.7-0.5-1.5-0.7-2.2-0.3 l-0.1,0.1c-0.8,0.5-1.3,1.6-1.7,2.5c-1.1,2.4-1.7,4.8-2.4,7.4c-0.1,0.5-0.2,1-0.3,1.5l-3,9.6l-4.1,9.1c-1.5,1.9-3.4,3.5-5.6,4.5 c-2.2,1.1-4.6,1.6-7,1.7c-10.1,0.2-14.8-8.9-14.8-8.9c-5.7-9.4-7.4-21.8-7.8-25.8C0,15,0,14.5,0,14.5c0-1.2,0.3-2.5,1-3.5 C1.6,9.9,2.5,9,3.6,8.4C4.8,7.8,6,7.6,7.3,7.6c1.2,0,2.3,0.4,3.4,1c0.8,0.5,1.5,1.1,2,1.8c0.9,1.3,1.2,3,1.3,4.6 C14.4,18.6,15.1,22.1,16.1,25.5L16.1,25.5z" class="st15"/><radialGradient id="SVGID_18_" cx="-117.682" cy="306.767" r="1" gradientTransform="matrix(5.2767 -7.8208 -6.1958 -4.1803 2545.5078 393.3918)" gradientUnits="userSpaceOnUse"><stop offset="0" style="stop-color:#fff"/><stop offset=".1" style="stop-color:#fff;stop-opacity:.87"/><stop offset=".41" style="stop-color:#fff;stop-opacity:.5"/><stop offset=".67" style="stop-color:#fff;stop-opacity:.23"/><stop offset=".88" style="stop-color:#fff;stop-opacity:6.000000e-02"/><stop offset="1" style="stop-color:#fff;stop-opacity:0"/></radialGradient><path d="M16.1,25.5c0.8,2.7,1.8,5.4,3.2,7.9c0.6,1.1,1.2,2.2,2.3,2.9c0.2,0.1,0.4,0.2,0.6,0.3c1.6,0.3,2.5-1,3.1-2.1 c0.8-1.9,1.5-3.8,2.1-5.8c0.1-0.4,0.2-0.7,0.3-1.1c0.2-0.7,0.4-1.4,0.5-2.1l7.1-19c1.5-2,3.4-3.6,5.6-4.7C43,0.6,45.4,0,47.9,0 c3.5,0,7,1.2,9.8,3.4c4.7,3.5,7.4,10.5,7.4,10.5c0.4,0.9,0.6,1.9,0.6,2.9c0,0.9-0.2,1.8-0.5,2.7c-0.4,0.8-0.9,1.6-1.5,2.3 c-0.6,0.6-1.4,1.2-2.3,1.5c-0.8,0.3-1.8,0.5-2.7,0.5c-1,0-2-0.2-2.9-0.7c-0.9-0.4-1.7-1.1-2.4-1.8c0,0,0-0.1-0.1-0.1 c-0.4-0.6-0.8-1.3-1.1-2c-0.4-0.9-0.8-1.7-1.3-2.5c-0.3-0.4-0.5-0.8-0.8-1.2c-0.2-0.4-0.5-0.7-0.9-1c-0.7-0.5-1.5-0.7-2.2-0.3 l-0.1,0.1c-0.8,0.5-1.3,1.6-1.7,2.5c-1.1,2.4-1.7,4.8-2.4,7.4c-0.1,0.5-0.2,1-0.3,1.5l-3,9.6l-4.1,9.1c-1.5,1.9-3.4,3.5-5.6,4.5 c-2.2,1.1-4.6,1.6-7,1.7c-10.1,0.2-14.8-8.9-14.8-8.9c-5.7-9.4-7.4-21.8-7.8-25.8C0,15,0,14.5,0,14.5c0-1.2,0.3-2.5,1-3.5 C1.6,9.9,2.5,9,3.6,8.4C4.8,7.8,6,7.6,7.3,7.6c1.2,0,2.3,0.4,3.4,1c0.8,0.5,1.5,1.1,2,1.8c0.9,1.3,1.2,3,1.3,4.6 C14.4,18.6,15.1,22.1,16.1,25.5L16.1,25.5z" class="st16"/><linearGradient id="SVGID_19_" x1="6.696" x2="30.885" y1="80.421" y2="58.036" gradientTransform="matrix(1 0 0 -1 0 79.2756)" gradientUnits="userSpaceOnUse"><stop offset=".13" style="stop-color:#fff"/><stop offset=".27" style="stop-color:#fff;stop-opacity:.64"/><stop offset=".4" style="stop-color:#fff;stop-opacity:.3"/><stop offset=".49" style="stop-color:#fff;stop-opacity:8.000000e-02"/><stop offset=".54" style="stop-color:#fff;stop-opacity:0"/></linearGradient><path d="M16.1,25.5c0.8,2.7,1.8,5.4,3.2,7.9c0.6,1.1,1.2,2.2,2.3,2.9c0.2,0.1,0.4,0.2,0.6,0.3c1.6,0.3,2.5-1,3.1-2.1 c0.8-1.9,1.5-3.8,2.1-5.8c0.1-0.4,0.2-0.7,0.3-1.1c0.2-0.7,0.4-1.4,0.5-2.1l7.1-19c1.5-2,3.4-3.6,5.6-4.7C43,0.6,45.4,0,47.9,0 c3.5,0,7,1.2,9.8,3.4c4.7,3.5,7.4,10.5,7.4,10.5c0.4,0.9,0.6,1.9,0.6,2.9c0,0.9-0.2,1.8-0.5,2.7c-0.4,0.8-0.9,1.6-1.5,2.3 c-0.6,0.6-1.4,1.2-2.3,1.5c-0.8,0.3-1.8,0.5-2.7,0.5c-1,0-2-0.2-2.9-0.7c-0.9-0.4-1.7-1.1-2.4-1.8c0,0,0-0.1-0.1-0.1 c-0.4-0.6-0.8-1.3-1.1-2c-0.4-0.9-0.8-1.7-1.3-2.5c-0.3-0.4-0.5-0.8-0.8-1.2c-0.2-0.4-0.5-0.7-0.9-1c-0.7-0.5-1.5-0.7-2.2-0.3 l-0.1,0.1c-0.8,0.5-1.3,1.6-1.7,2.5c-1.1,2.4-1.7,4.8-2.4,7.4c-0.1,0.5-0.2,1-0.3,1.5l-3,9.6l-4.1,9.1c-1.5,1.9-3.4,3.5-5.6,4.5 c-2.2,1.1-4.6,1.6-7,1.7c-10.1,0.2-14.8-8.9-14.8-8.9c-5.7-9.4-7.4-21.8-7.8-25.8C0,15,0,14.5,0,14.5c0-1.2,0.3-2.5,1-3.5 C1.6,9.9,2.5,9,3.6,8.4C4.8,7.8,6,7.6,7.3,7.6c1.2,0,2.3,0.4,3.4,1c0.8,0.5,1.5,1.1,2,1.8c0.9,1.3,1.2,3,1.3,4.6 C14.4,18.6,15.1,22.1,16.1,25.5L16.1,25.5z" class="st17"/><linearGradient id="SVGID_20_" x1="-6.998" x2="21.255" y1="43.895" y2="51.905" gradientTransform="matrix(1 0 0 -1 0 79.2756)" gradientUnits="userSpaceOnUse"><stop offset="0" style="stop-color:#fff"/><stop offset=".06" style="stop-color:#fff;stop-opacity:.88"/><stop offset=".24" style="stop-color:#fff;stop-opacity:.51"/><stop offset=".39" style="stop-color:#fff;stop-opacity:.23"/><stop offset=".5" style="stop-color:#fff;stop-opacity:6.000000e-02"/><stop offset=".55" style="stop-color:#fff;stop-opacity:0"/></linearGradient><path d="M16.1,25.5c0.8,2.7,1.8,5.4,3.2,7.9c0.6,1.1,1.2,2.2,2.3,2.9c0.2,0.1,0.4,0.2,0.6,0.3c1.6,0.3,2.5-1,3.1-2.1 c0.8-1.9,1.5-3.8,2.1-5.8c0.1-0.4,0.2-0.7,0.3-1.1c0.2-0.7,0.4-1.4,0.5-2.1l7.1-19c1.5-2,3.4-3.6,5.6-4.7C43,0.6,45.4,0,47.9,0 c3.5,0,7,1.2,9.8,3.4c4.7,3.5,7.4,10.5,7.4,10.5c0.4,0.9,0.6,1.9,0.6,2.9c0,0.9-0.2,1.8-0.5,2.7c-0.4,0.8-0.9,1.6-1.5,2.3 c-0.6,0.6-1.4,1.2-2.3,1.5c-0.8,0.3-1.8,0.5-2.7,0.5c-1,0-2-0.2-2.9-0.7c-0.9-0.4-1.7-1.1-2.4-1.8c0,0,0-0.1-0.1-0.1 c-0.4-0.6-0.8-1.3-1.1-2c-0.4-0.9-0.8-1.7-1.3-2.5c-0.3-0.4-0.5-0.8-0.8-1.2c-0.2-0.4-0.5-0.7-0.9-1c-0.7-0.5-1.5-0.7-2.2-0.3 l-0.1,0.1c-0.8,0.5-1.3,1.6-1.7,2.5c-1.1,2.4-1.7,4.8-2.4,7.4c-0.1,0.5-0.2,1-0.3,1.5l-3,9.6l-4.1,9.1c-1.5,1.9-3.4,3.5-5.6,4.5 c-2.2,1.1-4.6,1.6-7,1.7c-10.1,0.2-14.8-8.9-14.8-8.9c-5.7-9.4-7.4-21.8-7.8-25.8C0,15,0,14.5,0,14.5c0-1.2,0.3-2.5,1-3.5 C1.6,9.9,2.5,9,3.6,8.4C4.8,7.8,6,7.6,7.3,7.6c1.2,0,2.3,0.4,3.4,1c0.8,0.5,1.5,1.1,2,1.8c0.9,1.3,1.2,3,1.3,4.6 C14.4,18.6,15.1,22.1,16.1,25.5L16.1,25.5z" class="st18"/><linearGradient id="SVGID_21_" x1=".487" x2="32.328" y1="44.877" y2="56.226" gradientTransform="matrix(1 0 0 -1 0 79.2756)" gradientUnits="userSpaceOnUse"><stop offset="0" style="stop-color:#fff"/><stop offset=".04" style="stop-color:#fff;stop-opacity:.88"/><stop offset=".17" style="stop-color:#fff;stop-opacity:.51"/><stop offset=".27" style="stop-color:#fff;stop-opacity:.23"/><stop offset=".34" style="stop-color:#fff;stop-opacity:6.000000e-02"/><stop offset=".38" style="stop-color:#fff;stop-opacity:0"/></linearGradient><path d="M16.1,25.5c0.8,2.7,1.8,5.4,3.2,7.9c0.6,1.1,1.2,2.2,2.3,2.9c0.2,0.1,0.4,0.2,0.6,0.3c1.6,0.3,2.5-1,3.1-2.1 c0.8-1.9,1.5-3.8,2.1-5.8c0.1-0.4,0.2-0.7,0.3-1.1c0.2-0.7,0.4-1.4,0.5-2.1l7.1-19c1.5-2,3.4-3.6,5.6-4.7C43,0.6,45.4,0,47.9,0 c3.5,0,7,1.2,9.8,3.4c4.7,3.5,7.4,10.5,7.4,10.5c0.4,0.9,0.6,1.9,0.6,2.9c0,0.9-0.2,1.8-0.5,2.7c-0.4,0.8-0.9,1.6-1.5,2.3 c-0.6,0.6-1.4,1.2-2.3,1.5c-0.8,0.3-1.8,0.5-2.7,0.5c-1,0-2-0.2-2.9-0.7c-0.9-0.4-1.7-1.1-2.4-1.8c0,0,0-0.1-0.1-0.1 c-0.4-0.6-0.8-1.3-1.1-2c-0.4-0.9-0.8-1.7-1.3-2.5c-0.3-0.4-0.5-0.8-0.8-1.2c-0.2-0.4-0.5-0.7-0.9-1c-0.7-0.5-1.5-0.7-2.2-0.3 l-0.1,0.1c-0.8,0.5-1.3,1.6-1.7,2.5c-1.1,2.4-1.7,4.8-2.4,7.4c-0.1,0.5-0.2,1-0.3,1.5l-3,9.6l-4.1,9.1c-1.5,1.9-3.4,3.5-5.6,4.5 c-2.2,1.1-4.6,1.6-7,1.7c-10.1,0.2-14.8-8.9-14.8-8.9c-5.7-9.4-7.4-21.8-7.8-25.8C0,15,0,14.5,0,14.5c0-1.2,0.3-2.5,1-3.5 C1.6,9.9,2.5,9,3.6,8.4C4.8,7.8,6,7.6,7.3,7.6c1.2,0,2.3,0.4,3.4,1c0.8,0.5,1.5,1.1,2,1.8c0.9,1.3,1.2,3,1.3,4.6 C14.4,18.6,15.1,22.1,16.1,25.5L16.1,25.5z" class="st19"/><linearGradient id="SVGID_22_" x1="30.743" x2="48.553" y1="61.302" y2="32.254" gradientTransform="matrix(1 0 0 -1 0 79.2756)" gradientUnits="userSpaceOnUse"><stop offset=".62" style="stop-color:#fff;stop-opacity:0"/><stop offset=".66" style="stop-color:#fff;stop-opacity:6.000000e-02"/><stop offset=".73" style="stop-color:#fff;stop-opacity:.23"/><stop offset=".83" style="stop-color:#fff;stop-opacity:.51"/><stop offset=".96" style="stop-color:#fff;stop-opacity:.88"/><stop offset="1" style="stop-color:#fff"/></linearGradient><path d="M16.1,25.5c0.8,2.7,1.8,5.4,3.2,7.9c0.6,1.1,1.2,2.2,2.3,2.9c0.2,0.1,0.4,0.2,0.6,0.3c1.6,0.3,2.5-1,3.1-2.1 c0.8-1.9,1.5-3.8,2.1-5.8c0.1-0.4,0.2-0.7,0.3-1.1c0.2-0.7,0.4-1.4,0.5-2.1l7.1-19c1.5-2,3.4-3.6,5.6-4.7C43,0.6,45.4,0,47.9,0 c3.5,0,7,1.2,9.8,3.4c4.7,3.5,7.4,10.5,7.4,10.5c0.4,0.9,0.6,1.9,0.6,2.9c0,0.9-0.2,1.8-0.5,2.7c-0.4,0.8-0.9,1.6-1.5,2.3 c-0.6,0.6-1.4,1.2-2.3,1.5c-0.8,0.3-1.8,0.5-2.7,0.5c-1,0-2-0.2-2.9-0.7c-0.9-0.4-1.7-1.1-2.4-1.8c0,0,0-0.1-0.1-0.1 c-0.4-0.6-0.8-1.3-1.1-2c-0.4-0.9-0.8-1.7-1.3-2.5c-0.3-0.4-0.5-0.8-0.8-1.2c-0.2-0.4-0.5-0.7-0.9-1c-0.7-0.5-1.5-0.7-2.2-0.3 l-0.1,0.1c-0.8,0.5-1.3,1.6-1.7,2.5c-1.1,2.4-1.7,4.8-2.4,7.4c-0.1,0.5-0.2,1-0.3,1.5l-3,9.6l-4.1,9.1c-1.5,1.9-3.4,3.5-5.6,4.5 c-2.2,1.1-4.6,1.6-7,1.7c-10.1,0.2-14.8-8.9-14.8-8.9c-5.7-9.4-7.4-21.8-7.8-25.8C0,15,0,14.5,0,14.5c0-1.2,0.3-2.5,1-3.5 C1.6,9.9,2.5,9,3.6,8.4C4.8,7.8,6,7.6,7.3,7.6c1.2,0,2.3,0.4,3.4,1c0.8,0.5,1.5,1.1,2,1.8c0.9,1.3,1.2,3,1.3,4.6 C14.4,18.6,15.1,22.1,16.1,25.5L16.1,25.5z" class="st20"/><linearGradient id="SVGID_23_" x1="50.564" x2="47.764" y1="50.449" y2="64.114" gradientTransform="matrix(1 0 0 -1 0 79.2756)" gradientUnits="userSpaceOnUse"><stop offset="0" style="stop-color:#fff"/><stop offset=".11" style="stop-color:#fff;stop-opacity:.8"/><stop offset=".27" style="stop-color:#fff;stop-opacity:.52"/><stop offset=".43" style="stop-color:#fff;stop-opacity:.29"/><stop offset=".58" style="stop-color:#fff;stop-opacity:.13"/><stop offset=".7" style="stop-color:#fff;stop-opacity:3.000000e-02"/><stop offset=".8" style="stop-color:#fff;stop-opacity:0"/></linearGradient><path d="M30.7,18.4l4.5-12.1c1.5-2,3.4-3.6,5.6-4.7C43,0.6,45.4,0,47.9,0c3.5,0,7,1.2,9.8,3.4 c4.7,3.5,7.4,10.5,7.4,10.5c0.4,0.9,0.6,1.9,0.6,2.9c0,0.9-0.2,1.8-0.5,2.7c-0.4,0.8-0.9,1.6-1.5,2.3c-0.6,0.6-1.4,1.2-2.3,1.5 c-0.8,0.3-1.8,0.5-2.7,0.5c-1,0-2-0.2-2.9-0.7c-0.9-0.4-1.7-1.1-2.4-1.8c0,0,0-0.1-0.1-0.1c-0.4-0.6-0.8-1.3-1.1-2 c-0.4-0.9-0.8-1.7-1.3-2.5c-0.3-0.4-0.5-0.8-0.8-1.2c-0.2-0.4-0.5-0.7-0.9-1c-0.7-0.5-1.5-0.7-2.2-0.3l-0.1,0.1 c-0.8,0.5-1.3,1.6-1.7,2.5c-1.1,2.4-1.7,4.8-2.4,7.4c-0.1,0.5-0.2,1-0.3,1.5l-3,9.6L30.7,18.4z" class="st21"/><linearGradient id="SVGID_24_" x1="11.488" x2="70.446" y1="64.629" y2="45.111" gradientTransform="matrix(1 0 0 -1 0 79.2756)" gradientUnits="userSpaceOnUse"><stop offset="0" style="stop-color:#fff"/><stop offset=".38" style="stop-color:#fff"/><stop offset=".74" style="stop-color:#fff"/><stop offset="1" style="stop-color:#fff"/></linearGradient><path d="M63.5,7.6c-0.6,0-1.2,0.1-1.7,0.2c1.3,1.9,2.4,3.9,3.3,6c0.4,0.9,0.6,1.9,0.6,2.9c0,0.9-0.2,1.8-0.5,2.7 c-0.4,0.8-0.9,1.6-1.5,2.3s-1.4,1.2-2.3,1.5c-0.8,0.3-1.8,0.5-2.7,0.5c-1.2,0-2.5-0.3-3.5-1l-0.7,2.7c-1.3,4.4-2.2,6-2.2,6 c-0.5,1.2-1.1,2.3-1.8,3.4c-0.5,0.7-1.1,1.4-1.9,1.7c-0.3,0.1-0.6,0.1-0.9,0.1c-0.3,0-0.6-0.1-0.9-0.3c-0.5-0.4-1-1-1.3-1.6 c-0.4-0.7-0.7-1.4-1-2.1c-0.6-1.5-1.6-5.2-1.6-5.2l-1-3.9l-1-3.9L40.2,17c-1.8-6.7-4.4-10-4.4-10c-2-2.9-4.9-5-8.2-6.2 c-3.8-1.4-7.8-0.6-7.8-0.6c-6.3,1.2-9.6,5.5-11,7.6c0.7,0.2,1.3,0.4,1.9,0.8c0.8,0.5,1.5,1.1,2,1.8c0.9,1.3,1.2,3,1.3,4.6 c0.4,3.5,1.1,6.9,2,10.3c2.1-7.1,4.7-10.4,4.7-10.4c0.3-0.4,0.6-0.7,1-0.9c0.2-0.1,0.4-0.2,0.7-0.2c0.4,0,0.9,0.1,1.2,0.3 c0.1,0,0.1,0.1,0.2,0.1c0.3,0.3,0.6,0.6,0.9,1c0.5,1,1,1.9,1.4,3c0.8,2.2,1.5,5,1.5,5l2,8c1.5,5.5,2.7,8.1,2.7,8.1 c3.1,7.1,7.8,9.1,7.8,9.1c2.3,1.2,4.9,1.9,7.5,2c2.5,0.1,5-0.4,7.2-1.5c2.4-1.2,4.6-3,6.3-5.1c1.1-1.3,2.8-4.5,2.8-4.5 c1.9-3.7,3.3-7.6,4.3-11.6c0.7-2.5,1.2-5,1.6-7.6c0.2-1.3,0.4-2.5,0.5-3.8c0.2-1.2,0.2-2.4-0.1-3.6c-0.1-0.2-0.1-0.4-0.2-0.6 c-0.6-1.5-1.7-2.7-3.1-3.5C65.9,7.9,64.7,7.6,63.5,7.6z" class="st22"/><radialGradient id="SVGID_25_" cx="-93.395" cy="343.947" r="1" gradientTransform="matrix(-4.7638 31.1677 20.5707 3.1441 -7467.0112 1853.0936)" gradientUnits="userSpaceOnUse"><stop offset="0" style="stop-color:#fff"/><stop offset=".4" style="stop-color:#fff;stop-opacity:.42"/><stop offset=".7" style="stop-color:#fff;stop-opacity:0"/></radialGradient><path d="M63.5,7.6c-0.6,0-1.2,0.1-1.7,0.2c1.3,1.9,2.4,3.9,3.3,6c0.4,0.9,0.6,1.9,0.6,2.9c0,0.9-0.2,1.8-0.5,2.7 c-0.4,0.8-0.9,1.6-1.5,2.3s-1.4,1.2-2.3,1.5c-0.8,0.3-1.8,0.5-2.7,0.5c-1.2,0-2.5-0.3-3.5-1l-0.7,2.7c-1.3,4.4-2.2,6-2.2,6 c-0.5,1.2-1.1,2.3-1.8,3.4c-0.5,0.7-1.1,1.4-1.9,1.7c-0.3,0.1-0.6,0.1-0.9,0.1c-0.3,0-0.6-0.1-0.9-0.3c-0.5-0.4-1-1-1.3-1.6 c-0.4-0.7-0.7-1.4-1-2.1c-0.6-1.5-1.6-5.2-1.6-5.2l-1-3.9l-1-3.9L40.2,17c-1.8-6.7-4.4-10-4.4-10c-2-2.9-4.9-5-8.2-6.2 c-3.8-1.4-7.8-0.6-7.8-0.6c-6.3,1.2-9.6,5.5-11,7.6c0.7,0.2,1.3,0.4,1.9,0.8c0.8,0.5,1.5,1.1,2,1.8c0.9,1.3,1.2,3,1.3,4.6 c0.4,3.5,1.1,6.9,2,10.3c2.1-7.1,4.7-10.4,4.7-10.4c0.3-0.4,0.6-0.7,1-0.9c0.2-0.1,0.4-0.2,0.7-0.2c0.4,0,0.9,0.1,1.2,0.3 c0.1,0,0.1,0.1,0.2,0.1c0.3,0.3,0.6,0.6,0.9,1c0.5,1,1,1.9,1.4,3c0.8,2.2,1.5,5,1.5,5l2,8c1.5,5.5,2.7,8.1,2.7,8.1 c3.1,7.1,7.8,9.1,7.8,9.1c2.3,1.2,4.9,1.9,7.5,2c2.5,0.1,5-0.4,7.2-1.5c2.4-1.2,4.6-3,6.3-5.1c1.1-1.3,2.8-4.5,2.8-4.5 c1.9-3.7,3.3-7.6,4.3-11.6c0.7-2.5,1.2-5,1.6-7.6c0.2-1.3,0.4-2.5,0.5-3.8c0.2-1.2,0.2-2.4-0.1-3.6c-0.1-0.2-0.1-0.4-0.2-0.6 c-0.6-1.5-1.7-2.7-3.1-3.5C65.9,7.9,64.7,7.6,63.5,7.6z" class="st23"/><radialGradient id="SVGID_26_" cx="-100.938" cy="337.342" r="1" gradientTransform="matrix(-586.04 3834.2625 2067.4011 315.9877 -737387.25 230914.1875)" gradientUnits="userSpaceOnUse"><stop offset="0" style="stop-color:#fff"/><stop offset=".4" style="stop-color:#fff;stop-opacity:.42"/><stop offset=".7" style="stop-color:#fff;stop-opacity:0"/></radialGradient><path d="M63.5,7.6c-0.6,0-1.2,0.1-1.7,0.2c1.3,1.9,2.4,3.9,3.3,6c0.4,0.9,0.6,1.9,0.6,2.9c0,0.9-0.2,1.8-0.5,2.7 c-0.4,0.8-0.9,1.6-1.5,2.3s-1.4,1.2-2.3,1.5c-0.8,0.3-1.8,0.5-2.7,0.5c-1.2,0-2.5-0.3-3.5-1l-0.7,2.7c-1.3,4.4-2.2,6-2.2,6 c-0.5,1.2-1.1,2.3-1.8,3.4c-0.5,0.7-1.1,1.4-1.9,1.7c-0.3,0.1-0.6,0.1-0.9,0.1c-0.3,0-0.6-0.1-0.9-0.3c-0.5-0.4-1-1-1.3-1.6 c-0.4-0.7-0.7-1.4-1-2.1c-0.6-1.5-1.6-5.2-1.6-5.2l-1-3.9l-1-3.9L40.2,17c-1.8-6.7-4.4-10-4.4-10c-2-2.9-4.9-5-8.2-6.2 c-3.8-1.4-7.8-0.6-7.8-0.6c-6.3,1.2-9.6,5.5-11,7.6c0.7,0.2,1.3,0.4,1.9,0.8c0.8,0.5,1.5,1.1,2,1.8c0.9,1.3,1.2,3,1.3,4.6 c0.4,3.5,1.1,6.9,2,10.3c2.1-7.1,4.7-10.4,4.7-10.4c0.3-0.4,0.6-0.7,1-0.9c0.2-0.1,0.4-0.2,0.7-0.2c0.4,0,0.9,0.1,1.2,0.3 c0.1,0,0.1,0.1,0.2,0.1c0.3,0.3,0.6,0.6,0.9,1c0.5,1,1,1.9,1.4,3c0.8,2.2,1.5,5,1.5,5l2,8c1.5,5.5,2.7,8.1,2.7,8.1 c3.1,7.1,7.8,9.1,7.8,9.1c2.3,1.2,4.9,1.9,7.5,2c2.5,0.1,5-0.4,7.2-1.5c2.4-1.2,4.6-3,6.3-5.1c1.1-1.3,2.8-4.5,2.8-4.5 c1.9-3.7,3.3-7.6,4.3-11.6c0.7-2.5,1.2-5,1.6-7.6c0.2-1.3,0.4-2.5,0.5-3.8c0.2-1.2,0.2-2.4-0.1-3.6c-0.1-0.2-0.1-0.4-0.2-0.6 c-0.6-1.5-1.7-2.7-3.1-3.5C65.9,7.9,64.7,7.6,63.5,7.6z" class="st24"/><radialGradient id="SVGID_27_" cx="-100.948" cy="337.348" r="1" gradientTransform="matrix(-692.0117 4567.3027 1886.8551 285.8855 -689536.75 314335.5625)" gradientUnits="userSpaceOnUse"><stop offset="0" style="stop-color:#fff"/><stop offset=".4" style="stop-color:#fff;stop-opacity:.42"/><stop offset=".7" style="stop-color:#fff;stop-opacity:0"/></radialGradient><path d="M63.5,7.6c-0.6,0-1.2,0.1-1.7,0.2c1.3,1.9,2.4,3.9,3.3,6c0.4,0.9,0.6,1.9,0.6,2.9c0,0.9-0.2,1.8-0.5,2.7 c-0.4,0.8-0.9,1.6-1.5,2.3s-1.4,1.2-2.3,1.5c-0.8,0.3-1.8,0.5-2.7,0.5c-1.2,0-2.5-0.3-3.5-1l-0.7,2.7c-1.3,4.4-2.2,6-2.2,6 c-0.5,1.2-1.1,2.3-1.8,3.4c-0.5,0.7-1.1,1.4-1.9,1.7c-0.3,0.1-0.6,0.1-0.9,0.1c-0.3,0-0.6-0.1-0.9-0.3c-0.5-0.4-1-1-1.3-1.6 c-0.4-0.7-0.7-1.4-1-2.1c-0.6-1.5-1.6-5.2-1.6-5.2l-1-3.9l-1-3.9L40.2,17c-1.8-6.7-4.4-10-4.4-10c-2-2.9-4.9-5-8.2-6.2 c-3.8-1.4-7.8-0.6-7.8-0.6c-6.3,1.2-9.6,5.5-11,7.6c0.7,0.2,1.3,0.4,1.9,0.8c0.8,0.5,1.5,1.1,2,1.8c0.9,1.3,1.2,3,1.3,4.6 c0.4,3.5,1.1,6.9,2,10.3c2.1-7.1,4.7-10.4,4.7-10.4c0.3-0.4,0.6-0.7,1-0.9c0.2-0.1,0.4-0.2,0.7-0.2c0.4,0,0.9,0.1,1.2,0.3 c0.1,0,0.1,0.1,0.2,0.1c0.3,0.3,0.6,0.6,0.9,1c0.5,1,1,1.9,1.4,3c0.8,2.2,1.5,5,1.5,5l2,8c1.5,5.5,2.7,8.1,2.7,8.1 c3.1,7.1,7.8,9.1,7.8,9.1c2.3,1.2,4.9,1.9,7.5,2c2.5,0.1,5-0.4,7.2-1.5c2.4-1.2,4.6-3,6.3-5.1c1.1-1.3,2.8-4.5,2.8-4.5 c1.9-3.7,3.3-7.6,4.3-11.6c0.7-2.5,1.2-5,1.6-7.6c0.2-1.3,0.4-2.5,0.5-3.8c0.2-1.2,0.2-2.4-0.1-3.6c-0.1-0.2-0.1-0.4-0.2-0.6 c-0.6-1.5-1.7-2.7-3.1-3.5C65.9,7.9,64.7,7.6,63.5,7.6z" class="st25"/><radialGradient id="SVGID_28_" cx="-91.266" cy="340.875" r="1" gradientTransform="matrix(3.3163 27.3592 19.0896 -2.3139 -6155.3208 3308.1001)" gradientUnits="userSpaceOnUse"><stop offset="0" style="stop-color:#fff"/><stop offset=".16" style="stop-color:#fff;stop-opacity:.69"/><stop offset=".33" style="stop-color:#fff;stop-opacity:.4"/><stop offset=".49" style="stop-color:#fff;stop-opacity:.18"/><stop offset=".61" style="stop-color:#fff;stop-opacity:5.000000e-02"/><stop offset=".7" style="stop-color:#fff;stop-opacity:0"/></radialGradient><path d="M63.5,7.6c-0.6,0-1.2,0.1-1.7,0.2c1.3,1.9,2.4,3.9,3.3,6c0.4,0.9,0.6,1.9,0.6,2.9c0,0.9-0.2,1.8-0.5,2.7 c-0.4,0.8-0.9,1.6-1.5,2.3s-1.4,1.2-2.3,1.5c-0.8,0.3-1.8,0.5-2.7,0.5c-1.2,0-2.5-0.3-3.5-1l-0.7,2.7c-1.3,4.4-2.2,6-2.2,6 c-0.5,1.2-1.1,2.3-1.8,3.4c-0.5,0.7-1.1,1.4-1.9,1.7c-0.3,0.1-0.6,0.1-0.9,0.1c-0.3,0-0.6-0.1-0.9-0.3c-0.5-0.4-1-1-1.3-1.6 c-0.4-0.7-0.7-1.4-1-2.1c-0.6-1.5-1.6-5.2-1.6-5.2l-1-3.9l-1-3.9L40.2,17c-1.8-6.7-4.4-10-4.4-10c-2-2.9-4.9-5-8.2-6.2 c-3.8-1.4-7.8-0.6-7.8-0.6c-6.3,1.2-9.6,5.5-11,7.6c0.7,0.2,1.3,0.4,1.9,0.8c0.8,0.5,1.5,1.1,2,1.8c0.9,1.3,1.2,3,1.3,4.6 c0.4,3.5,1.1,6.9,2,10.3c2.1-7.1,4.7-10.4,4.7-10.4c0.3-0.4,0.6-0.7,1-0.9c0.2-0.1,0.4-0.2,0.7-0.2c0.4,0,0.9,0.1,1.2,0.3 c0.1,0,0.1,0.1,0.2,0.1c0.3,0.3,0.6,0.6,0.9,1c0.5,1,1,1.9,1.4,3c0.8,2.2,1.5,5,1.5,5l2,8c1.5,5.5,2.7,8.1,2.7,8.1 c3.1,7.1,7.8,9.1,7.8,9.1c2.3,1.2,4.9,1.9,7.5,2c2.5,0.1,5-0.4,7.2-1.5c2.4-1.2,4.6-3,6.3-5.1c1.1-1.3,2.8-4.5,2.8-4.5 c1.9-3.7,3.3-7.6,4.3-11.6c0.7-2.5,1.2-5,1.6-7.6c0.2-1.3,0.4-2.5,0.5-3.8c0.2-1.2,0.2-2.4-0.1-3.6c-0.1-0.2-0.1-0.4-0.2-0.6 c-0.6-1.5-1.7-2.7-3.1-3.5C65.9,7.9,64.7,7.6,63.5,7.6z" class="st26"/><radialGradient id="SVGID_29_" cx="-90.597" cy="338.889" r="1" gradientTransform="matrix(7.0156 25.5395 17.3669 -4.7706 -5195.6958 3957.0959)" gradientUnits="userSpaceOnUse"><stop offset="0" style="stop-color:#fff"/><stop offset=".37" style="stop-color:#fff;stop-opacity:.45"/><stop offset=".7" style="stop-color:#fff;stop-opacity:0"/></radialGradient><path d="M63.5,7.6c-0.6,0-1.2,0.1-1.7,0.2c1.3,1.9,2.4,3.9,3.3,6c0.4,0.9,0.6,1.9,0.6,2.9c0,0.9-0.2,1.8-0.5,2.7 c-0.4,0.8-0.9,1.6-1.5,2.3s-1.4,1.2-2.3,1.5c-0.8,0.3-1.8,0.5-2.7,0.5c-1.2,0-2.5-0.3-3.5-1l-0.7,2.7c-1.3,4.4-2.2,6-2.2,6 c-0.5,1.2-1.1,2.3-1.8,3.4c-0.5,0.7-1.1,1.4-1.9,1.7c-0.3,0.1-0.6,0.1-0.9,0.1c-0.3,0-0.6-0.1-0.9-0.3c-0.5-0.4-1-1-1.3-1.6 c-0.4-0.7-0.7-1.4-1-2.1c-0.6-1.5-1.6-5.2-1.6-5.2l-1-3.9l-1-3.9L40.2,17c-1.8-6.7-4.4-10-4.4-10c-2-2.9-4.9-5-8.2-6.2 c-3.8-1.4-7.8-0.6-7.8-0.6c-6.3,1.2-9.6,5.5-11,7.6c0.7,0.2,1.3,0.4,1.9,0.8c0.8,0.5,1.5,1.1,2,1.8c0.9,1.3,1.2,3,1.3,4.6 c0.4,3.5,1.1,6.9,2,10.3c2.1-7.1,4.7-10.4,4.7-10.4c0.3-0.4,0.6-0.7,1-0.9c0.2-0.1,0.4-0.2,0.7-0.2c0.4,0,0.9,0.1,1.2,0.3 c0.1,0,0.1,0.1,0.2,0.1c0.3,0.3,0.6,0.6,0.9,1c0.5,1,1,1.9,1.4,3c0.8,2.2,1.5,5,1.5,5l2,8c1.5,5.5,2.7,8.1,2.7,8.1 c3.1,7.1,7.8,9.1,7.8,9.1c2.3,1.2,4.9,1.9,7.5,2c2.5,0.1,5-0.4,7.2-1.5c2.4-1.2,4.6-3,6.3-5.1c1.1-1.3,2.8-4.5,2.8-4.5 c1.9-3.7,3.3-7.6,4.3-11.6c0.7-2.5,1.2-5,1.6-7.6c0.2-1.3,0.4-2.5,0.5-3.8c0.2-1.2,0.2-2.4-0.1-3.6c-0.1-0.2-0.1-0.4-0.2-0.6 c-0.6-1.5-1.7-2.7-3.1-3.5C65.9,7.9,64.7,7.6,63.5,7.6z" class="st27"/><radialGradient id="SVGID_30_" cx="-78.625" cy="339.759" r="1" gradientTransform="matrix(3.2619 11.8747 11.2809 -3.0988 -3524.8049 2020.1703)" gradientUnits="userSpaceOnUse"><stop offset="0" style="stop-color:#fff"/><stop offset=".09" style="stop-color:#fff;stop-opacity:.78"/><stop offset=".22" style="stop-color:#fff;stop-opacity:.5"/><stop offset=".35" style="stop-color:#fff;stop-opacity:.28"/><stop offset=".47" style="stop-color:#fff;stop-opacity:.13"/><stop offset=".59" style="stop-color:#fff;stop-opacity:3.000000e-02"/><stop offset=".7" style="stop-color:#fff;stop-opacity:0"/></radialGradient><path d="M63.5,7.6c-0.6,0-1.2,0.1-1.7,0.2c1.3,1.9,2.4,3.9,3.3,6c0.4,0.9,0.6,1.9,0.6,2.9c0,0.9-0.2,1.8-0.5,2.7 c-0.4,0.8-0.9,1.6-1.5,2.3s-1.4,1.2-2.3,1.5c-0.8,0.3-1.8,0.5-2.7,0.5c-1.2,0-2.5-0.3-3.5-1l-0.7,2.7c-1.3,4.4-2.2,6-2.2,6 c-0.5,1.2-1.1,2.3-1.8,3.4c-0.5,0.7-1.1,1.4-1.9,1.7c-0.3,0.1-0.6,0.1-0.9,0.1c-0.3,0-0.6-0.1-0.9-0.3c-0.5-0.4-1-1-1.3-1.6 c-0.4-0.7-0.7-1.4-1-2.1c-0.6-1.5-1.6-5.2-1.6-5.2l-1-3.9l-1-3.9L40.2,17c-1.8-6.7-4.4-10-4.4-10c-2-2.9-4.9-5-8.2-6.2 c-3.8-1.4-7.8-0.6-7.8-0.6c-6.3,1.2-9.6,5.5-11,7.6c0.7,0.2,1.3,0.4,1.9,0.8c0.8,0.5,1.5,1.1,2,1.8c0.9,1.3,1.2,3,1.3,4.6 c0.4,3.5,1.1,6.9,2,10.3c2.1-7.1,4.7-10.4,4.7-10.4c0.3-0.4,0.6-0.7,1-0.9c0.2-0.1,0.4-0.2,0.7-0.2c0.4,0,0.9,0.1,1.2,0.3 c0.1,0,0.1,0.1,0.2,0.1c0.3,0.3,0.6,0.6,0.9,1c0.5,1,1,1.9,1.4,3c0.8,2.2,1.5,5,1.5,5l2,8c1.5,5.5,2.7,8.1,2.7,8.1 c3.1,7.1,7.8,9.1,7.8,9.1c2.3,1.2,4.9,1.9,7.5,2c2.5,0.1,5-0.4,7.2-1.5c2.4-1.2,4.6-3,6.3-5.1c1.1-1.3,2.8-4.5,2.8-4.5 c1.9-3.7,3.3-7.6,4.3-11.6c0.7-2.5,1.2-5,1.6-7.6c0.2-1.3,0.4-2.5,0.5-3.8c0.2-1.2,0.2-2.4-0.1-3.6c-0.1-0.2-0.1-0.4-0.2-0.6 c-0.6-1.5-1.7-2.7-3.1-3.5C65.9,7.9,64.7,7.6,63.5,7.6z" class="st28"/><radialGradient id="SVGID_31_" cx="-78.625" cy="339.759" r="1" gradientTransform="matrix(3.2619 11.8747 11.2809 -3.0988 -3524.5095 2022.271)" gradientUnits="userSpaceOnUse"><stop offset="0" style="stop-color:#fff;stop-opacity:.8"/><stop offset=".01" style="stop-color:#fff;stop-opacity:.78"/><stop offset=".24" style="stop-color:#fff;stop-opacity:.45"/><stop offset=".44" style="stop-color:#fff;stop-opacity:.2"/><stop offset=".6" style="stop-color:#fff;stop-opacity:5.000000e-02"/><stop offset=".7" style="stop-color:#fff;stop-opacity:0"/></radialGradient><path d="M63.5,7.6c-0.6,0-1.2,0.1-1.7,0.2c1.3,1.9,2.4,3.9,3.3,6c0.4,0.9,0.6,1.9,0.6,2.9c0,0.9-0.2,1.8-0.5,2.7 c-0.4,0.8-0.9,1.6-1.5,2.3s-1.4,1.2-2.3,1.5c-0.8,0.3-1.8,0.5-2.7,0.5c-1.2,0-2.5-0.3-3.5-1l-0.7,2.7c-1.3,4.4-2.2,6-2.2,6 c-0.5,1.2-1.1,2.3-1.8,3.4c-0.5,0.7-1.1,1.4-1.9,1.7c-0.3,0.1-0.6,0.1-0.9,0.1c-0.3,0-0.6-0.1-0.9-0.3c-0.5-0.4-1-1-1.3-1.6 c-0.4-0.7-0.7-1.4-1-2.1c-0.6-1.5-1.6-5.2-1.6-5.2l-1-3.9l-1-3.9L40.2,17c-1.8-6.7-4.4-10-4.4-10c-2-2.9-4.9-5-8.2-6.2 c-3.8-1.4-7.8-0.6-7.8-0.6c-6.3,1.2-9.6,5.5-11,7.6c0.7,0.2,1.3,0.4,1.9,0.8c0.8,0.5,1.5,1.1,2,1.8c0.9,1.3,1.2,3,1.3,4.6 c0.4,3.5,1.1,6.9,2,10.3c2.1-7.1,4.7-10.4,4.7-10.4c0.3-0.4,0.6-0.7,1-0.9c0.2-0.1,0.4-0.2,0.7-0.2c0.4,0,0.9,0.1,1.2,0.3 c0.1,0,0.1,0.1,0.2,0.1c0.3,0.3,0.6,0.6,0.9,1c0.5,1,1,1.9,1.4,3c0.8,2.2,1.5,5,1.5,5l2,8c1.5,5.5,2.7,8.1,2.7,8.1 c3.1,7.1,7.8,9.1,7.8,9.1c2.3,1.2,4.9,1.9,7.5,2c2.5,0.1,5-0.4,7.2-1.5c2.4-1.2,4.6-3,6.3-5.1c1.1-1.3,2.8-4.5,2.8-4.5 c1.9-3.7,3.3-7.6,4.3-11.6c0.7-2.5,1.2-5,1.6-7.6c0.2-1.3,0.4-2.5,0.5-3.8c0.2-1.2,0.2-2.4-0.1-3.6c-0.1-0.2-0.1-0.4-0.2-0.6 c-0.6-1.5-1.7-2.7-3.1-3.5C65.9,7.9,64.7,7.6,63.5,7.6z" class="st29"/><radialGradient id="SVGID_32_" cx="-91.576" cy="336.88" r="1" gradientTransform="matrix(11.4702 27.0578 17.9555 -7.6116 -4977.1445 5070.2827)" gradientUnits="userSpaceOnUse"><stop offset="0" style="stop-color:#fff"/><stop offset=".4" style="stop-color:#fff;stop-opacity:.56"/><stop offset=".48" style="stop-color:#fff;stop-opacity:.43"/><stop offset=".69" style="stop-color:#fff;stop-opacity:.12"/><stop offset=".79" style="stop-color:#fff;stop-opacity:0"/></radialGradient><path d="M63.5,7.6c-0.6,0-1.2,0.1-1.7,0.2c1.3,1.9,2.4,3.9,3.3,6c0.4,0.9,0.6,1.9,0.6,2.9c0,0.9-0.2,1.8-0.5,2.7 c-0.4,0.8-0.9,1.6-1.5,2.3s-1.4,1.2-2.3,1.5c-0.8,0.3-1.8,0.5-2.7,0.5c-1.2,0-2.5-0.3-3.5-1l-0.7,2.7c-1.3,4.4-2.2,6-2.2,6 c-0.5,1.2-1.1,2.3-1.8,3.4c-0.5,0.7-1.1,1.4-1.9,1.7c-0.3,0.1-0.6,0.1-0.9,0.1c-0.3,0-0.6-0.1-0.9-0.3c-0.5-0.4-1-1-1.3-1.6 c-0.4-0.7-0.7-1.4-1-2.1c-0.6-1.5-1.6-5.2-1.6-5.2l-1-3.9l-1-3.9L40.2,17c-1.8-6.7-4.4-10-4.4-10c-2-2.9-4.9-5-8.2-6.2 c-3.8-1.4-7.8-0.6-7.8-0.6c-6.3,1.2-9.6,5.5-11,7.6c0.7,0.2,1.3,0.4,1.9,0.8c0.8,0.5,1.5,1.1,2,1.8c0.9,1.3,1.2,3,1.3,4.6 c0.4,3.5,1.1,6.9,2,10.3c2.1-7.1,4.7-10.4,4.7-10.4c0.3-0.4,0.6-0.7,1-0.9c0.2-0.1,0.4-0.2,0.7-0.2c0.4,0,0.9,0.1,1.2,0.3 c0.1,0,0.1,0.1,0.2,0.1c0.3,0.3,0.6,0.6,0.9,1c0.5,1,1,1.9,1.4,3c0.8,2.2,1.5,5,1.5,5l2,8c1.5,5.5,2.7,8.1,2.7,8.1 c3.1,7.1,7.8,9.1,7.8,9.1c2.3,1.2,4.9,1.9,7.5,2c2.5,0.1,5-0.4,7.2-1.5c2.4-1.2,4.6-3,6.3-5.1c1.1-1.3,2.8-4.5,2.8-4.5 c1.9-3.7,3.3-7.6,4.3-11.6c0.7-2.5,1.2-5,1.6-7.6c0.2-1.3,0.4-2.5,0.5-3.8c0.2-1.2,0.2-2.4-0.1-3.6c-0.1-0.2-0.1-0.4-0.2-0.6 c-0.6-1.5-1.7-2.7-3.1-3.5C65.9,7.9,64.7,7.6,63.5,7.6z" class="st30"/><radialGradient id="SVGID_33_" cx="-88.398" cy="339.782" r="1" gradientTransform="matrix(5.2356 21.1604 13.9699 -3.4565 -4264.4629 3066.5762)" gradientUnits="userSpaceOnUse"><stop offset="0" style="stop-color:#fff"/><stop offset=".06" style="stop-color:#fff;stop-opacity:.88"/><stop offset=".21" style="stop-color:#fff;stop-opacity:.61"/><stop offset=".36" style="stop-color:#fff;stop-opacity:.39"/><stop offset=".51" style="stop-color:#fff;stop-opacity:.22"/><stop offset=".67" style="stop-color:#fff;stop-opacity:.1"/><stop offset=".83" style="stop-color:#fff;stop-opacity:2.000000e-02"/><stop offset="1" style="stop-color:#fff;stop-opacity:0"/></radialGradient><path d="M63.5,7.6c-0.6,0-1.2,0.1-1.7,0.2c1.3,1.9,2.4,3.9,3.3,6c0.4,0.9,0.6,1.9,0.6,2.9c0,0.9-0.2,1.8-0.5,2.7 c-0.4,0.8-0.9,1.6-1.5,2.3s-1.4,1.2-2.3,1.5c-0.8,0.3-1.8,0.5-2.7,0.5c-1.2,0-2.5-0.3-3.5-1l-0.7,2.7c-1.3,4.4-2.2,6-2.2,6 c-0.5,1.2-1.1,2.3-1.8,3.4c-0.5,0.7-1.1,1.4-1.9,1.7c-0.3,0.1-0.6,0.1-0.9,0.1c-0.3,0-0.6-0.1-0.9-0.3c-0.5-0.4-1-1-1.3-1.6 c-0.4-0.7-0.7-1.4-1-2.1c-0.6-1.5-1.6-5.2-1.6-5.2l-1-3.9l-1-3.9L40.2,17c-1.8-6.7-4.4-10-4.4-10c-2-2.9-4.9-5-8.2-6.2 c-3.8-1.4-7.8-0.6-7.8-0.6c-6.3,1.2-9.6,5.5-11,7.6c0.7,0.2,1.3,0.4,1.9,0.8c0.8,0.5,1.5,1.1,2,1.8c0.9,1.3,1.2,3,1.3,4.6 c0.4,3.5,1.1,6.9,2,10.3c2.1-7.1,4.7-10.4,4.7-10.4c0.3-0.4,0.6-0.7,1-0.9c0.2-0.1,0.4-0.2,0.7-0.2c0.4,0,0.9,0.1,1.2,0.3 c0.1,0,0.1,0.1,0.2,0.1c0.3,0.3,0.6,0.6,0.9,1c0.5,1,1,1.9,1.4,3c0.8,2.2,1.5,5,1.5,5l2,8c1.5,5.5,2.7,8.1,2.7,8.1 c3.1,7.1,7.8,9.1,7.8,9.1c2.3,1.2,4.9,1.9,7.5,2c2.5,0.1,5-0.4,7.2-1.5c2.4-1.2,4.6-3,6.3-5.1c1.1-1.3,2.8-4.5,2.8-4.5 c1.9-3.7,3.3-7.6,4.3-11.6c0.7-2.5,1.2-5,1.6-7.6c0.2-1.3,0.4-2.5,0.5-3.8c0.2-1.2,0.2-2.4-0.1-3.6c-0.1-0.2-0.1-0.4-0.2-0.6 c-0.6-1.5-1.7-2.7-3.1-3.5C65.9,7.9,64.7,7.6,63.5,7.6z" class="st31"/><radialGradient id="SVGID_34_" cx="-88.398" cy="339.782" r="1" gradientTransform="matrix(5.2356 21.1604 13.9699 -3.4565 -4264.4629 3066.5762)" gradientUnits="userSpaceOnUse"><stop offset="0" style="stop-color:#fff"/><stop offset=".06" style="stop-color:#fff;stop-opacity:.87"/><stop offset=".21" style="stop-color:#fff;stop-opacity:.61"/><stop offset=".36" style="stop-color:#fff;stop-opacity:.39"/><stop offset=".52" style="stop-color:#fff;stop-opacity:.22"/><stop offset=".67" style="stop-color:#fff;stop-opacity:.1"/><stop offset=".83" style="stop-color:#fff;stop-opacity:2.000000e-02"/><stop offset="1" style="stop-color:#fff;stop-opacity:0"/></radialGradient><path d="M63.5,7.6c-0.6,0-1.2,0.1-1.7,0.2c1.3,1.9,2.4,3.9,3.3,6c0.4,0.9,0.6,1.9,0.6,2.9c0,0.9-0.2,1.8-0.5,2.7 c-0.4,0.8-0.9,1.6-1.5,2.3s-1.4,1.2-2.3,1.5c-0.8,0.3-1.8,0.5-2.7,0.5c-1.2,0-2.5-0.3-3.5-1l-0.7,2.7c-1.3,4.4-2.2,6-2.2,6 c-0.5,1.2-1.1,2.3-1.8,3.4c-0.5,0.7-1.1,1.4-1.9,1.7c-0.3,0.1-0.6,0.1-0.9,0.1c-0.3,0-0.6-0.1-0.9-0.3c-0.5-0.4-1-1-1.3-1.6 c-0.4-0.7-0.7-1.4-1-2.1c-0.6-1.5-1.6-5.2-1.6-5.2l-1-3.9l-1-3.9L40.2,17c-1.8-6.7-4.4-10-4.4-10c-2-2.9-4.9-5-8.2-6.2 c-3.8-1.4-7.8-0.6-7.8-0.6c-6.3,1.2-9.6,5.5-11,7.6c0.7,0.2,1.3,0.4,1.9,0.8c0.8,0.5,1.5,1.1,2,1.8c0.9,1.3,1.2,3,1.3,4.6 c0.4,3.5,1.1,6.9,2,10.3c2.1-7.1,4.7-10.4,4.7-10.4c0.3-0.4,0.6-0.7,1-0.9c0.2-0.1,0.4-0.2,0.7-0.2c0.4,0,0.9,0.1,1.2,0.3 c0.1,0,0.1,0.1,0.2,0.1c0.3,0.3,0.6,0.6,0.9,1c0.5,1,1,1.9,1.4,3c0.8,2.2,1.5,5,1.5,5l2,8c1.5,5.5,2.7,8.1,2.7,8.1 c3.1,7.1,7.8,9.1,7.8,9.1c2.3,1.2,4.9,1.9,7.5,2c2.5,0.1,5-0.4,7.2-1.5c2.4-1.2,4.6-3,6.3-5.1c1.1-1.3,2.8-4.5,2.8-4.5 c1.9-3.7,3.3-7.6,4.3-11.6c0.7-2.5,1.2-5,1.6-7.6c0.2-1.3,0.4-2.5,0.5-3.8c0.2-1.2,0.2-2.4-0.1-3.6c-0.1-0.2-0.1-0.4-0.2-0.6 c-0.6-1.5-1.7-2.7-3.1-3.5C65.9,7.9,64.7,7.6,63.5,7.6z" class="st32"/><radialGradient id="SVGID_35_" cx="-84.528" cy="340.552" r="1" gradientTransform="matrix(4.0054 16.1886 10.6876 -2.6444 -3280.8323 2288.3921)" gradientUnits="userSpaceOnUse"><stop offset="0" style="stop-color:#183991"/><stop offset=".03" style="stop-color:#fff;stop-opacity:.95"/><stop offset=".18" style="stop-color:#fff;stop-opacity:.66"/><stop offset=".34" style="stop-color:#fff;stop-opacity:.42"/><stop offset=".5" style="stop-color:#fff;stop-opacity:.24"/><stop offset=".66" style="stop-color:#fff;stop-opacity:.1"/><stop offset=".82" style="stop-color:#fff;stop-opacity:3.000000e-02"/><stop offset="1" style="stop-color:#fff;stop-opacity:0"/></radialGradient><path d="M63.5,7.6c-0.6,0-1.2,0.1-1.7,0.2c1.3,1.9,2.4,3.9,3.3,6c0.4,0.9,0.6,1.9,0.6,2.9c0,0.9-0.2,1.8-0.5,2.7 c-0.4,0.8-0.9,1.6-1.5,2.3s-1.4,1.2-2.3,1.5c-0.8,0.3-1.8,0.5-2.7,0.5c-1.2,0-2.5-0.3-3.5-1l-0.7,2.7c-1.3,4.4-2.2,6-2.2,6 c-0.5,1.2-1.1,2.3-1.8,3.4c-0.5,0.7-1.1,1.4-1.9,1.7c-0.3,0.1-0.6,0.1-0.9,0.1c-0.3,0-0.6-0.1-0.9-0.3c-0.5-0.4-1-1-1.3-1.6 c-0.4-0.7-0.7-1.4-1-2.1c-0.6-1.5-1.6-5.2-1.6-5.2l-1-3.9l-1-3.9L40.2,17c-1.8-6.7-4.4-10-4.4-10c-2-2.9-4.9-5-8.2-6.2 c-3.8-1.4-7.8-0.6-7.8-0.6c-6.3,1.2-9.6,5.5-11,7.6c0.7,0.2,1.3,0.4,1.9,0.8c0.8,0.5,1.5,1.1,2,1.8c0.9,1.3,1.2,3,1.3,4.6 c0.4,3.5,1.1,6.9,2,10.3c2.1-7.1,4.7-10.4,4.7-10.4c0.3-0.4,0.6-0.7,1-0.9c0.2-0.1,0.4-0.2,0.7-0.2c0.4,0,0.9,0.1,1.2,0.3 c0.1,0,0.1,0.1,0.2,0.1c0.3,0.3,0.6,0.6,0.9,1c0.5,1,1,1.9,1.4,3c0.8,2.2,1.5,5,1.5,5l2,8c1.5,5.5,2.7,8.1,2.7,8.1 c3.1,7.1,7.8,9.1,7.8,9.1c2.3,1.2,4.9,1.9,7.5,2c2.5,0.1,5-0.4,7.2-1.5c2.4-1.2,4.6-3,6.3-5.1c1.1-1.3,2.8-4.5,2.8-4.5 c1.9-3.7,3.3-7.6,4.3-11.6c0.7-2.5,1.2-5,1.6-7.6c0.2-1.3,0.4-2.5,0.5-3.8c0.2-1.2,0.2-2.4-0.1-3.6c-0.1-0.2-0.1-0.4-0.2-0.6 c-0.6-1.5-1.7-2.7-3.1-3.5C65.9,7.9,64.7,7.6,63.5,7.6z" class="st33"/><radialGradient id="SVGID_36_" cx="-81.064" cy="344.861" r="1" gradientTransform="matrix(0.6581 13.1615 11.586 -0.5793 -3918.9788 1287.8403)" gradientUnits="userSpaceOnUse"><stop offset=".04" style="stop-color:#fff;stop-opacity:.6"/><stop offset=".2" style="stop-color:#fff;stop-opacity:.49"/><stop offset=".52" style="stop-color:#fff;stop-opacity:.2"/><stop offset=".73" style="stop-color:#fff;stop-opacity:0"/></radialGradient><path d="M63.5,7.6c-0.6,0-1.2,0.1-1.7,0.2c1.3,1.9,2.4,3.9,3.3,6c0.4,0.9,0.6,1.9,0.6,2.9c0,0.9-0.2,1.8-0.5,2.7 c-0.4,0.8-0.9,1.6-1.5,2.3s-1.4,1.2-2.3,1.5c-0.8,0.3-1.8,0.5-2.7,0.5c-1.2,0-2.5-0.3-3.5-1l-0.7,2.7c-1.3,4.4-2.2,6-2.2,6 c-0.5,1.2-1.1,2.3-1.8,3.4c-0.5,0.7-1.1,1.4-1.9,1.7c-0.3,0.1-0.6,0.1-0.9,0.1c-0.3,0-0.6-0.1-0.9-0.3c-0.5-0.4-1-1-1.3-1.6 c-0.4-0.7-0.7-1.4-1-2.1c-0.6-1.5-1.6-5.2-1.6-5.2l-1-3.9l-1-3.9L40.2,17c-1.8-6.7-4.4-10-4.4-10c-2-2.9-4.9-5-8.2-6.2 c-3.8-1.4-7.8-0.6-7.8-0.6c-6.3,1.2-9.6,5.5-11,7.6c0.7,0.2,1.3,0.4,1.9,0.8c0.8,0.5,1.5,1.1,2,1.8c0.9,1.3,1.2,3,1.3,4.6 c0.4,3.5,1.1,6.9,2,10.3c2.1-7.1,4.7-10.4,4.7-10.4c0.3-0.4,0.6-0.7,1-0.9c0.2-0.1,0.4-0.2,0.7-0.2c0.4,0,0.9,0.1,1.2,0.3 c0.1,0,0.1,0.1,0.2,0.1c0.3,0.3,0.6,0.6,0.9,1c0.5,1,1,1.9,1.4,3c0.8,2.2,1.5,5,1.5,5l2,8c1.5,5.5,2.7,8.1,2.7,8.1 c3.1,7.1,7.8,9.1,7.8,9.1c2.3,1.2,4.9,1.9,7.5,2c2.5,0.1,5-0.4,7.2-1.5c2.4-1.2,4.6-3,6.3-5.1c1.1-1.3,2.8-4.5,2.8-4.5 c1.9-3.7,3.3-7.6,4.3-11.6c0.7-2.5,1.2-5,1.6-7.6c0.2-1.3,0.4-2.5,0.5-3.8c0.2-1.2,0.2-2.4-0.1-3.6c-0.1-0.2-0.1-0.4-0.2-0.6 c-0.6-1.5-1.7-2.7-3.1-3.5C65.9,7.9,64.7,7.6,63.5,7.6z" class="st34"/><linearGradient id="SVGID_37_" x1="49.779" x2="34.887" y1="88.692" y2="51.881" gradientTransform="matrix(1 0 0 -1 0 79.2756)" gradientUnits="userSpaceOnUse"><stop offset="0" style="stop-color:#fff"/><stop offset=".05" style="stop-color:#fff;stop-opacity:.91"/><stop offset=".16" style="stop-color:#fff;stop-opacity:.66"/><stop offset=".32" style="stop-color:#fff;stop-opacity:.28"/><stop offset=".43" style="stop-color:#fff;stop-opacity:0"/></linearGradient><path d="M63.5,7.6c-0.6,0-1.2,0.1-1.7,0.2c1.3,1.9,2.4,3.9,3.3,6c0.4,0.9,0.6,1.9,0.6,2.9c0,0.9-0.2,1.8-0.5,2.7 c-0.4,0.8-0.9,1.6-1.5,2.3s-1.4,1.2-2.3,1.5c-0.8,0.3-1.8,0.5-2.7,0.5c-1.2,0-2.5-0.3-3.5-1l-0.7,2.7c-1.3,4.4-2.2,6-2.2,6 c-0.5,1.2-1.1,2.3-1.8,3.4c-0.5,0.7-1.1,1.4-1.9,1.7c-0.3,0.1-0.6,0.1-0.9,0.1c-0.3,0-0.6-0.1-0.9-0.3c-0.5-0.4-1-1-1.3-1.6 c-0.4-0.7-0.7-1.4-1-2.1c-0.6-1.5-1.6-5.2-1.6-5.2l-1-3.9l-1-3.9L40.2,17c-1.8-6.7-4.4-10-4.4-10c-2-2.9-4.9-5-8.2-6.2 c-3.8-1.4-7.8-0.6-7.8-0.6c-6.3,1.2-9.6,5.5-11,7.6c0.7,0.2,1.3,0.4,1.9,0.8c0.8,0.5,1.5,1.1,2,1.8c0.9,1.3,1.2,3,1.3,4.6 c0.4,3.5,1.1,6.9,2,10.3c2.1-7.1,4.7-10.4,4.7-10.4c0.3-0.4,0.6-0.7,1-0.9c0.2-0.1,0.4-0.2,0.7-0.2c0.4,0,0.9,0.1,1.2,0.3 c0.1,0,0.1,0.1,0.2,0.1c0.3,0.3,0.6,0.6,0.9,1c0.5,1,1,1.9,1.4,3c0.8,2.2,1.5,5,1.5,5l2,8c1.5,5.5,2.7,8.1,2.7,8.1 c3.1,7.1,7.8,9.1,7.8,9.1c2.3,1.2,4.9,1.9,7.5,2c2.5,0.1,5-0.4,7.2-1.5c2.4-1.2,4.6-3,6.3-5.1c1.1-1.3,2.8-4.5,2.8-4.5 c1.9-3.7,3.3-7.6,4.3-11.6c0.7-2.5,1.2-5,1.6-7.6c0.2-1.3,0.4-2.5,0.5-3.8c0.2-1.2,0.2-2.4-0.1-3.6c-0.1-0.2-0.1-0.4-0.2-0.6 c-0.6-1.5-1.7-2.7-3.1-3.5C65.9,7.9,64.7,7.6,63.5,7.6z" class="st35"/></g></g></svg>