<svg xmlns="http://www.w3.org/2000/svg" xmlns:xlink="http://www.w3.org/1999/xlink" width="469" height="310" version="1.1" viewBox="0 0 469 310"><title>logo_vertical@2x</title><desc>Created with Sketch.</desc><defs><polygon id="path-1" points=".572 .042 24.404 .042 24.404 23.874 .572 23.874"/><polygon id="path-3" points="0 .735 41.035 .735 41.035 60.508 0 60.508"/></defs><g id="Page-1" fill="none" fill-rule="evenodd" stroke="none" stroke-width="1"><g id="Artboard" transform="translate(-29.000000, -88.000000)"><g id="logo_vertical" transform="translate(29.000000, 87.000000)"><path id="Fill-1" fill="#B7B7B7" d="M193.8237,152.1217 C200.4047,152.1217 205.7397,157.4567 205.7397,164.0377 C205.7397,170.6187 200.4047,175.9527 193.8237,175.9527 C187.2427,175.9527 181.9077,170.6187 181.9077,164.0377 C181.9077,157.4567 187.2427,152.1217 193.8237,152.1217"/><path id="Fill-3" fill="#B7B7B7" d="M158.8329,88.5709 C165.4139,88.5709 170.7489,93.9059 170.7489,100.4869 C170.7489,107.0679 165.4139,112.4029 158.8329,112.4029 C152.2519,112.4029 146.9169,107.0679 146.9169,100.4869 C146.9169,93.9059 152.2519,88.5709 158.8329,88.5709"/><path id="Fill-5" fill="#B7B7B7" d="M275.3427,64.7394 C281.9227,64.7394 287.2577,70.0744 287.2577,76.6554 C287.2577,83.2364 281.9227,88.5714 275.3427,88.5714 C268.7617,88.5714 263.4267,83.2364 263.4267,76.6554 C263.4267,70.0744 268.7617,64.7394 275.3427,64.7394"/><path id="Fill-7" fill="#B7B7B7" d="M275.3427,112.5915 C281.9227,112.5915 287.2577,117.9265 287.2577,124.5075 C287.2577,131.0885 281.9227,136.4235 275.3427,136.4235 C268.7617,136.4235 263.4267,131.0885 263.4267,124.5075 C263.4267,117.9265 268.7617,112.5915 275.3427,112.5915"/><path id="Fill-9" fill="#B7B7B7" d="M275.3427,152.1217 C281.9227,152.1217 287.2577,157.4567 287.2577,164.0377 C287.2577,170.6187 281.9227,175.9527 275.3427,175.9527 C268.7617,175.9527 263.4267,170.6187 263.4267,164.0377 C263.4267,157.4567 268.7617,152.1217 275.3427,152.1217"/><path id="Fill-11" fill="#B7B7B7" d="M234.4882,132.4508 C241.0692,132.4508 246.4042,137.7858 246.4042,144.3668 C246.4042,150.9478 241.0692,156.2828 234.4882,156.2828 C227.9072,156.2828 222.5722,150.9478 222.5722,144.3668 C222.5722,137.7858 227.9072,132.4508 234.4882,132.4508"/><path id="Fill-13" fill="#B7B7B7" d="M265.6962,131.695 C265.6962,131.695 271.9372,138.504 271.5592,144.556 C271.3702,151.744 265.3182,157.418 265.3182,157.418 L283.8532,155.716 C283.8532,155.716 278.3692,149.095 278.3692,144.746 C278.3692,138.314 283.6652,133.397 283.6652,133.397 L265.6962,131.695 Z"/><g id="Group-17" transform="translate(222.000000, 0.958000)"><mask id="mask-2" fill="#fff"><use xlink:href="#path-1"/></mask><path id="Fill-15" fill="#FFF" d="M12.4882,0.0417 C19.0692,0.0417 24.4042,5.3767 24.4042,11.9577 C24.4042,18.5387 19.0692,23.8737 12.4882,23.8737 C5.9072,23.8737 0.5722,18.5387 0.5722,11.9577 C0.5722,5.3767 5.9072,0.0417 12.4882,0.0417" mask="url(#mask-2)"/></g><path id="Fill-18" fill="#FFF" d="M193.8237,24.2638 C200.4047,24.2638 205.7397,29.5988 205.7397,36.1798 C205.7397,42.7608 200.4047,48.0958 193.8237,48.0958 C187.2427,48.0958 181.9077,42.7608 181.9077,36.1798 C181.9077,29.5988 187.2427,24.2638 193.8237,24.2638"/><path id="Fill-20" fill="#FFF" d="M193.8237,64.7394 C200.4047,64.7394 205.7397,70.0744 205.7397,76.6554 C205.7397,83.2364 200.4047,88.5714 193.8237,88.5714 C187.2427,88.5714 181.9077,83.2364 181.9077,76.6554 C181.9077,70.0744 187.2427,64.7394 193.8237,64.7394"/><path id="Fill-22" fill="#FFF" d="M193.8237,112.5915 C200.4047,112.5915 205.7397,117.9265 205.7397,124.5075 C205.7397,131.0885 200.4047,136.4235 193.8237,136.4235 C187.2427,136.4235 181.9077,131.0885 181.9077,124.5075 C181.9077,117.9265 187.2427,112.5915 193.8237,112.5915"/><path id="Fill-24" fill="#FFF" d="M275.3427,24.2638 C281.9227,24.2638 287.2577,29.5988 287.2577,36.1798 C287.2577,42.7608 281.9227,48.0958 275.3427,48.0958 C268.7617,48.0958 263.4267,42.7608 263.4267,36.1798 C263.4267,29.5988 268.7617,24.2638 275.3427,24.2638"/><path id="Fill-26" fill="#FFF" d="M310.3329,44.88 C316.9139,44.88 322.2489,50.215 322.2489,56.796 C322.2489,63.377 316.9139,68.712 310.3329,68.712 C303.7519,68.712 298.4169,63.377 298.4169,56.796 C298.4169,50.215 303.7519,44.88 310.3329,44.88"/><path id="Fill-28" fill="#FFF" d="M158.8329,44.88 C165.4139,44.88 170.7489,50.215 170.7489,56.796 C170.7489,63.377 165.4139,68.712 158.8329,68.712 C152.2519,68.712 146.9169,63.377 146.9169,56.796 C146.9169,50.215 152.2519,44.88 158.8329,44.88"/><path id="Fill-30" fill="#FFF" d="M310.3329,88.5709 C316.9139,88.5709 322.2489,93.9059 322.2489,100.4869 C322.2489,107.0679 316.9139,112.4029 310.3329,112.4029 C303.7519,112.4029 298.4169,107.0679 298.4169,100.4869 C298.4169,93.9059 303.7519,88.5709 310.3329,88.5709"/><path id="Fill-32" fill="#FFF" d="M310.3329,132.4508 C316.9139,132.4508 322.2489,137.7858 322.2489,144.3668 C322.2489,150.9478 316.9139,156.2828 310.3329,156.2828 C303.7519,156.2828 298.4169,150.9478 298.4169,144.3668 C298.4169,137.7858 303.7519,132.4508 310.3329,132.4508"/><path id="Fill-34" fill="#FFF" d="M158.8329,132.4508 C165.4139,132.4508 170.7489,137.7858 170.7489,144.3668 C170.7489,150.9478 165.4139,156.2828 158.8329,156.2828 C152.2519,156.2828 146.9169,150.9478 146.9169,144.3668 C146.9169,137.7858 152.2519,132.4508 158.8329,132.4508"/><path id="Fill-36" fill="#FFF" d="M234.4882,44.88 C241.0692,44.88 246.4042,50.215 246.4042,56.796 C246.4042,63.377 241.0692,68.712 234.4882,68.712 C227.9072,68.712 222.5722,63.377 222.5722,56.796 C222.5722,50.215 227.9072,44.88 234.4882,44.88"/><path id="Fill-38" fill="#FFF" d="M234.4882,176.1422 C241.0692,176.1422 246.4042,181.4772 246.4042,188.0582 C246.4042,194.6392 241.0692,199.9742 234.4882,199.9742 C227.9072,199.9742 222.5722,194.6392 222.5722,188.0582 C222.5722,181.4772 227.9072,176.1422 234.4882,176.1422"/><path id="Fill-40" fill="#FFF" d="M193.8237,48.2843 C193.8237,48.2843 205.5507,46.2033 211.7917,49.6083 C219.1677,53.7693 225.0317,63.9833 225.0317,63.9833 L232.0297,45.0693 C232.0297,45.0693 223.1397,47.7173 215.9527,44.5013 C208.9547,41.2863 205.1717,32.0183 205.1717,32.0183 L193.8237,48.2843 Z"/><path id="Fill-42" fill="#FFF" d="M183.0424,81.9513 C183.0424,81.9513 190.6084,91.5973 190.2294,98.7843 C189.8514,107.2963 183.6094,117.8873 183.6094,117.8873 L203.0914,116.9423 C203.0914,116.9423 196.6604,108.0523 196.4714,100.1083 C196.2824,92.3533 202.7124,84.4093 202.7124,84.4093 L183.0424,81.9513 Z"/><path id="Fill-44" fill="#FFF" d="M242.9999,99.7301 C239.1349,99.7301 236.0019,96.5971 236.0019,92.7321 C236.0019,88.8671 239.1349,85.7331 242.9999,85.7331 C246.8639,85.7331 249.9979,88.8671 249.9979,92.7321 C249.9979,96.5971 246.8639,99.7301 242.9999,99.7301 M234.6779,74.3851 C220.4709,74.3851 208.9549,85.9021 208.9549,100.1081 C208.9549,114.3151 220.4709,125.8321 234.6779,125.8321 C248.8839,125.8321 260.3999,114.3151 260.3999,100.1081 C260.3999,85.9021 248.8839,74.3851 234.6779,74.3851"/><polygon id="Fill-46" fill="#FFF" points="265.134 254.746 265.134 300.466 256.327 300.466 256.327 240.693 265.321 240.693 297.362 285.1 297.362 240.693 306.168 240.693 306.168 300.466 297.549 300.466"/><polygon id="Fill-48" fill="#FFF" points="319.097 240.693 358.446 240.693 358.446 248.376 327.904 248.376 327.904 265.988 357.883 265.988 357.883 273.671 327.904 273.671 327.904 292.783 358.446 292.783 358.446 300.465 319.097 300.465"/><polygon id="Fill-50" fill="#FFF" points="441.639 248.376 423.464 248.376 423.464 240.693 468.621 240.693 468.621 248.376 450.446 248.376 450.446 300.466 441.639 300.466"/><g id="Group-54" transform="translate(0.000000, 239.958000)"><mask id="mask-4" fill="#fff"><use xlink:href="#path-3"/></mask><path id="Fill-52" fill="#FFF" d="M3.1855,47.5788 C7.4955,53.0128 14.0535,56.0108 20.9855,56.0108 C32.6025,56.0108 35.7885,49.2648 35.7885,44.3928 C35.7885,36.1478 28.2935,34.0878 20.0485,31.8388 C11.0555,29.2158 1.4985,26.7798 1.4985,16.0998 C1.6865,6.5438 9.9305,0.7348 20.2365,0.7348 C28.6675,0.7348 35.0395,3.7328 39.5355,8.9788 L36.1635,12.5398 C32.2285,7.6678 26.2325,5.0448 20.0485,5.4198 C12.5545,5.4198 6.9335,9.7288 6.9335,15.9118 C6.9335,22.8458 14.0535,24.7188 21.7355,26.7798 C30.9165,29.4028 41.0345,32.4008 41.0345,44.0178 C41.0345,51.5138 36.1635,60.5078 20.7985,60.5078 C11.6175,60.5078 4.3095,56.5718 -0.0005,51.3258 L3.1855,47.5788 Z" mask="url(#mask-4)"/></g><polygon id="Fill-55" fill="#FFF" points="52.839 240.693 57.711 240.693 57.711 296.156 85.255 296.156 85.255 300.465 52.839 300.465"/><path id="Fill-57" fill="#FFF" d="M148.9619,287.5368 C153.2719,292.9708 159.8299,295.9688 166.7619,295.9688 C178.3789,295.9688 181.5649,289.2228 181.5649,284.3508 C181.5649,276.1058 174.0699,274.0458 165.8259,271.7968 C156.8319,269.1738 147.2749,266.7378 147.2749,256.0578 C147.2749,246.5018 155.5199,240.6928 166.0129,240.6928 C174.4449,240.6928 180.8159,243.6908 185.3129,248.9368 L181.9399,252.4978 C178.0049,247.6258 172.0089,245.0028 165.8259,245.3778 C158.3309,245.3778 152.5219,249.6868 152.5219,255.8698 C152.5219,262.8038 159.6419,264.6768 167.3239,266.7378 C176.5059,269.3608 186.6239,272.3588 186.6239,283.9758 C186.6239,291.4718 181.7529,300.4658 166.3879,300.4658 C157.2059,300.4658 149.8989,296.5298 145.5889,291.2838 L148.9619,287.5368 Z"/><polygon id="Fill-59" fill="#FFF" points="239.463 271.984 203.487 271.984 203.487 300.465 198.616 300.465 198.616 240.693 203.487 240.693 203.487 267.674 239.463 267.674 239.463 240.693 244.335 240.693 244.335 300.465 239.463 300.465"/><polygon id="Fill-61" fill="#FFF" points="113.616 240.693 118.812 240.693 94.925 300.465 89.678 300.465"/><polygon id="Fill-63" fill="#FFF" points="142.361 300.466 137.114 300.466 113.616 240.694 118.812 240.694"/><polygon id="Fill-65" fill="#FFF" points="123.666 282.102 101.743 282.102 101.743 276.668 121.043 276.668"/><polygon id="Fill-67" fill="#FFF" points="418.779 240.693 407.912 240.693 362.888 300.465 373.943 300.465"/><polygon id="Fill-69" fill="#B7B7B7" points="364.661 240.693 375.529 240.693 420.278 298.966 423.276 303.089 451.008 308.335 439.953 310.958 414.845 306.461 408.661 298.404"/></g></g></g></svg>