<svg xmlns="http://www.w3.org/2000/svg" xmlns:xlink="http://www.w3.org/1999/xlink" width="473" height="310" version="1.1" viewBox="0 0 473 310"><title>color_logo</title><desc>Created with Sketch.</desc><defs><polygon id="path-1" points=".552 .448 24.384 .448 24.384 24.28 .552 24.28"/><path id="path-3" d="M0.934,26.557 C0.934,40.763 12.451,52.28 26.658,52.28 L26.658,52.28 C40.863,52.28 52.38,40.763 52.38,26.557 L52.38,26.557 C52.38,12.351 40.863,0.835 26.658,0.835 L26.658,0.835 C12.451,0.835 0.934,12.351 0.934,26.557 M27.982,19.181 C27.982,15.316 31.115,12.183 34.98,12.183 L34.98,12.183 C38.844,12.183 41.977,15.316 41.977,19.181 L41.977,19.181 C41.977,23.046 38.844,26.179 34.98,26.179 L34.98,26.179 C31.115,26.179 27.982,23.046 27.982,19.181"/><linearGradient id="linearGradient-5" x1="21.078%" x2="80.464%" y1="84.344%" y2="13.824%"><stop offset="0%" stop-color="#2379AA"/><stop offset="100%" stop-color="#52B8E8"/></linearGradient><polygon id="path-6" points=".041 .141 45.58 .141 45.58 60.418 .041 60.418"/><polygon id="path-8" points=".743 .141 45.115 58.34 51.35 66.466 76.67 71 87.819 68.354 59.853 63.064 56.829 58.907 11.702 .141"/><linearGradient id="linearGradient-10" x1="-.001%" x2="99.999%" y1="50%" y2="50%"><stop offset="0%" stop-color="#54BAEB"/><stop offset="100%" stop-color="#1F75A7"/></linearGradient></defs><g id="Page-1" fill="none" fill-rule="evenodd" stroke="none" stroke-width="1"><g id="Artboard" transform="translate(-27.000000, -88.000000)"><g id="color_logo" transform="translate(27.000000, 87.000000)"><g id="Group-44" transform="translate(148.000000, 0.552000)"><path id="Fill-1" fill="#535353" d="M47.8034,151.57 C54.3844,151.57 59.7194,156.905 59.7194,163.486 C59.7194,170.067 54.3844,175.401 47.8034,175.401 C41.2224,175.401 35.8874,170.067 35.8874,163.486 C35.8874,156.905 41.2224,151.57 47.8034,151.57"/><path id="Fill-3" fill="#535353" d="M12.8127,88.0192 C19.3937,88.0192 24.7287,93.3542 24.7287,99.9352 C24.7287,106.5162 19.3937,111.8512 12.8127,111.8512 C6.2317,111.8512 0.8967,106.5162 0.8967,99.9352 C0.8967,93.3542 6.2317,88.0192 12.8127,88.0192"/><path id="Fill-5" fill="#535353" d="M129.3224,64.1877 C135.9024,64.1877 141.2374,69.5227 141.2374,76.1037 C141.2374,82.6847 135.9024,88.0197 129.3224,88.0197 C122.7414,88.0197 117.4064,82.6847 117.4064,76.1037 C117.4064,69.5227 122.7414,64.1877 129.3224,64.1877"/><path id="Fill-7" fill="#535353" d="M129.3224,112.0397 C135.9024,112.0397 141.2374,117.3747 141.2374,123.9557 C141.2374,130.5367 135.9024,135.8717 129.3224,135.8717 C122.7414,135.8717 117.4064,130.5367 117.4064,123.9557 C117.4064,117.3747 122.7414,112.0397 129.3224,112.0397"/><path id="Fill-9" fill="#535353" d="M129.3224,151.57 C135.9024,151.57 141.2374,156.905 141.2374,163.486 C141.2374,170.067 135.9024,175.401 129.3224,175.401 C122.7414,175.401 117.4064,170.067 117.4064,163.486 C117.4064,156.905 122.7414,151.57 129.3224,151.57"/><path id="Fill-11" fill="#535353" d="M88.468,131.9001 C95.049,131.9001 100.384,137.2341 100.384,143.8151 C100.384,150.3961 95.049,155.7311 88.468,155.7311 C81.887,155.7311 76.552,150.3961 76.552,143.8151 C76.552,137.2341 81.887,131.9001 88.468,131.9001"/><path id="Fill-13" fill="#535353" d="M119.676,131.1432 C119.676,131.1432 125.917,137.9522 125.539,144.0042 C125.35,151.1922 119.298,156.8662 119.298,156.8662 L137.833,155.1642 C137.833,155.1642 132.349,148.5432 132.349,144.1942 C132.349,137.7632 137.645,132.8452 137.645,132.8452 L119.676,131.1432 Z"/><g id="Group-17" transform="translate(76.000000, 0.000000)"><mask id="mask-2" fill="#fff"><use xlink:href="#path-1"/></mask><path id="Fill-15" fill="#3492C9" d="M12.468,0.4479 C19.049,0.4479 24.384,5.7829 24.384,12.3639 C24.384,18.9449 19.049,24.2799 12.468,24.2799 C5.887,24.2799 0.552,18.9449 0.552,12.3639 C0.552,5.7829 5.887,0.4479 12.468,0.4479" mask="url(#mask-2)"/></g><path id="Fill-18" fill="#3492C9" d="M47.8034,23.7121 C54.3844,23.7121 59.7194,29.0471 59.7194,35.6281 C59.7194,42.2091 54.3844,47.5441 47.8034,47.5441 C41.2224,47.5441 35.8874,42.2091 35.8874,35.6281 C35.8874,29.0471 41.2224,23.7121 47.8034,23.7121"/><path id="Fill-20" fill="#3492C9" d="M47.8034,64.1877 C54.3844,64.1877 59.7194,69.5227 59.7194,76.1037 C59.7194,82.6847 54.3844,88.0197 47.8034,88.0197 C41.2224,88.0197 35.8874,82.6847 35.8874,76.1037 C35.8874,69.5227 41.2224,64.1877 47.8034,64.1877"/><path id="Fill-22" fill="#3492C9" d="M47.8034,112.0397 C54.3844,112.0397 59.7194,117.3747 59.7194,123.9557 C59.7194,130.5367 54.3844,135.8717 47.8034,135.8717 C41.2224,135.8717 35.8874,130.5367 35.8874,123.9557 C35.8874,117.3747 41.2224,112.0397 47.8034,112.0397"/><path id="Fill-24" fill="#3492C9" d="M129.3224,23.7121 C135.9024,23.7121 141.2374,29.0471 141.2374,35.6281 C141.2374,42.2091 135.9024,47.5441 129.3224,47.5441 C122.7414,47.5441 117.4064,42.2091 117.4064,35.6281 C117.4064,29.0471 122.7414,23.7121 129.3224,23.7121"/><path id="Fill-26" fill="#3492C9" d="M164.3127,44.3283 C170.8937,44.3283 176.2287,49.6633 176.2287,56.2443 C176.2287,62.8253 170.8937,68.1603 164.3127,68.1603 C157.7317,68.1603 152.3967,62.8253 152.3967,56.2443 C152.3967,49.6633 157.7317,44.3283 164.3127,44.3283"/><path id="Fill-28" fill="#3492C9" d="M12.8127,44.3283 C19.3937,44.3283 24.7287,49.6633 24.7287,56.2443 C24.7287,62.8253 19.3937,68.1603 12.8127,68.1603 C6.2317,68.1603 0.8967,62.8253 0.8967,56.2443 C0.8967,49.6633 6.2317,44.3283 12.8127,44.3283"/><path id="Fill-30" fill="#3492C9" d="M164.3127,88.0192 C170.8937,88.0192 176.2287,93.3542 176.2287,99.9352 C176.2287,106.5162 170.8937,111.8512 164.3127,111.8512 C157.7317,111.8512 152.3967,106.5162 152.3967,99.9352 C152.3967,93.3542 157.7317,88.0192 164.3127,88.0192"/><path id="Fill-32" fill="#3492C9" d="M164.3127,131.9001 C170.8937,131.9001 176.2287,137.2341 176.2287,143.8151 C176.2287,150.3961 170.8937,155.7311 164.3127,155.7311 C157.7317,155.7311 152.3967,150.3961 152.3967,143.8151 C152.3967,137.2341 157.7317,131.9001 164.3127,131.9001"/><path id="Fill-34" fill="#3492C9" d="M12.8127,131.9001 C19.3937,131.9001 24.7287,137.2341 24.7287,143.8151 C24.7287,150.3961 19.3937,155.7311 12.8127,155.7311 C6.2317,155.7311 0.8967,150.3961 0.8967,143.8151 C0.8967,137.2341 6.2317,131.9001 12.8127,131.9001"/><path id="Fill-36" fill="#3492C9" d="M88.468,44.3283 C95.049,44.3283 100.384,49.6633 100.384,56.2443 C100.384,62.8253 95.049,68.1603 88.468,68.1603 C81.887,68.1603 76.552,62.8253 76.552,56.2443 C76.552,49.6633 81.887,44.3283 88.468,44.3283"/><path id="Fill-38" fill="#3492C9" d="M88.468,175.5905 C95.049,175.5905 100.384,180.9255 100.384,187.5065 C100.384,194.0875 95.049,199.4225 88.468,199.4225 C81.887,199.4225 76.552,194.0875 76.552,187.5065 C76.552,180.9255 81.887,175.5905 88.468,175.5905"/><path id="Fill-40" fill="#3492C9" d="M47.8034,47.7326 C47.8034,47.7326 59.5304,45.6526 65.7714,49.0566 C73.1474,53.2176 79.0114,63.4316 79.0114,63.4316 L86.0094,44.5176 C86.0094,44.5176 77.1194,47.1656 69.9324,43.9496 C62.9344,40.7346 59.1514,31.4666 59.1514,31.4666 L47.8034,47.7326 Z"/><path id="Fill-42" fill="#3492C9" d="M37.0222,81.3996 C37.0222,81.3996 44.5882,91.0456 44.2092,98.2326 C43.8312,106.7446 37.5892,117.3356 37.5892,117.3356 L57.0712,116.3906 C57.0712,116.3906 50.6402,107.5006 50.4512,99.5566 C50.2622,91.8016 56.6922,83.8576 56.6922,83.8576 L37.0222,81.3996 Z"/></g><g id="Group-47" transform="translate(210.000000, 73.552000)"><mask id="mask-4" fill="#fff"><use xlink:href="#path-3"/></mask><path id="Fill-45" fill="url(#linearGradient-5)" d="M0.934,26.557 C0.934,40.763 12.451,52.28 26.658,52.28 L26.658,52.28 C40.863,52.28 52.38,40.763 52.38,26.557 L52.38,26.557 C52.38,12.351 40.863,0.835 26.658,0.835 L26.658,0.835 C12.451,0.835 0.934,12.351 0.934,26.557 M27.982,19.181 C27.982,15.316 31.115,12.183 34.98,12.183 L34.98,12.183 C38.844,12.183 41.977,15.316 41.977,19.181 L41.977,19.181 C41.977,23.046 38.844,26.179 34.98,26.179 L34.98,26.179 C31.115,26.179 27.982,23.046 27.982,19.181" mask="url(#mask-4)"/></g><g id="Group-71" transform="translate(0.000000, 239.552000)"><polygon id="Fill-48" fill="#535353" points="267.373 14.313 267.373 60.418 258.492 60.418 258.492 .141 267.562 .141 299.874 44.923 299.874 .141 308.755 .141 308.755 60.418 300.062 60.418"/><polygon id="Fill-50" fill="#535353" points="321.793 .141 361.474 .141 361.474 7.888 330.674 7.888 330.674 25.65 360.906 25.65 360.906 33.398 330.674 33.398 330.674 52.671 361.474 52.671 361.474 60.418 321.793 60.418"/><g id="Group-54" transform="translate(427.000000, 0.000000)"><mask id="mask-7" fill="#fff"><use xlink:href="#path-6"/></mask><polygon id="Fill-52" fill="#535353" points="18.37 7.888 .041 7.888 .041 .141 45.58 .141 45.58 7.888 27.251 7.888 27.251 60.418 18.37 60.418" mask="url(#mask-7)"/></g><path id="Fill-55" fill="#535353" d="M3.2121,47.3805 C7.5581,52.8595 14.1711,55.8835 21.1631,55.8835 C32.8791,55.8835 36.0901,49.0805 36.0901,44.1685 C36.0901,35.8545 28.5321,33.7765 20.2181,31.5085 C11.1491,28.8625 1.5121,26.4055 1.5121,15.6355 C1.7001,5.9985 10.0151,0.1415 20.4071,0.1415 C28.9101,0.1415 35.3351,3.1645 39.8701,8.4555 L36.4681,12.0455 C32.5011,7.1325 26.4541,4.4865 20.2181,4.8645 C12.6601,4.8645 6.9911,9.2115 6.9911,15.4465 C6.9911,22.4385 14.1711,24.3275 21.9191,26.4055 C31.1781,29.0515 41.3811,32.0745 41.3811,43.7905 C41.3811,51.3485 36.4681,60.4185 20.9741,60.4185 C11.7151,60.4185 4.3461,56.4495 0.0001,51.1595 L3.2121,47.3805 Z"/><polygon id="Fill-57" fill="#535353" points="53.286 .141 58.199 .141 58.199 56.073 85.975 56.073 85.975 60.418 53.286 60.418"/><path id="Fill-59" fill="#535353" d="M150.2204,47.3805 C154.5664,52.8595 161.1794,55.8835 168.1714,55.8835 C179.8864,55.8835 183.0984,49.0805 183.0984,44.1685 C183.0984,35.8545 175.5404,33.7765 167.2264,31.5085 C158.1564,28.8625 148.5194,26.4055 148.5194,15.6355 C148.5194,5.9985 156.8334,0.1415 167.4154,0.1415 C175.9184,0.1415 182.3434,3.1645 186.8784,8.4555 L183.4764,12.0455 C179.5084,7.1325 173.4624,4.4865 167.2264,4.8645 C159.6684,4.8645 153.8104,9.2115 153.8104,15.4465 C153.8104,22.4385 160.9914,24.3275 168.7384,26.4055 C177.9974,29.0515 188.2004,32.0745 188.2004,43.7905 C188.2004,51.3485 183.2874,60.4185 167.7934,60.4185 C158.5344,60.4185 151.1654,56.4495 146.8194,51.1595 L150.2204,47.3805 Z"/><polygon id="Fill-61" fill="#535353" points="241.487 31.697 205.207 31.697 205.207 60.419 200.293 60.419 200.293 .141 205.207 .141 205.207 27.351 241.487 27.351 241.487 .141 246.399 .141 246.399 60.419 241.487 60.419"/><polygon id="Fill-63" fill="#535353" points="114.576 .141 119.815 .141 95.726 60.418 90.435 60.418"/><polygon id="Fill-65" fill="#535353" points="143.564 60.419 138.273 60.419 114.577 .142 119.816 .142"/><polygon id="Fill-67" fill="#535353" points="124.711 41.901 102.603 41.901 102.603 36.421 122.066 36.421"/><polygon id="Fill-69" fill="#535353" points="422.318 .141 411.359 .141 365.956 60.418 377.104 60.418"/></g><g id="Group-74" transform="translate(367.000000, 239.552000)"><mask id="mask-9" fill="#fff"><use xlink:href="#path-8"/></mask><polygon id="Fill-72" fill="url(#linearGradient-10)" points=".743 .141 45.115 58.34 51.35 66.466 76.67 71 87.819 68.354 59.853 63.064 56.829 58.907 11.702 .141" mask="url(#mask-9)"/></g></g></g></g></svg>