<svg xmlns="http://www.w3.org/2000/svg" xmlns:xlink="http://www.w3.org/1999/xlink" id="Layer_1" width="1845.93" height="1373.96" x="0" style="enable-background:new 0 0 1845.93 1373.96" y="0" version="1.1" viewBox="0 0 1845.93 1373.96" xml:space="preserve"><style type="text/css">.st0{fill:#e82c2e}.st1{fill:#0f2538}.st2{fill:#fff}</style><metadata><?xpacket begin="﻿" id="W5M0MpCehiHzreSzNTczkc9d"?><?xpacket end="w"?></metadata><g><g><path d="M1834.73,686.98c0,375.14-304.11,679.24-679.24,679.24s-679.24-304.1-679.24-679.24 c0-375.13,304.11-679.24,679.24-679.24S1834.73,311.85,1834.73,686.98" class="st0"/><path d="M686.17,687.33c0,186.39-151.1,337.48-337.48,337.48c-186.38,0-337.48-151.09-337.48-337.48 s151.1-337.48,337.48-337.48C535.07,349.85,686.17,500.94,686.17,687.33" class="st1"/><path d="M279.96,612.94c-13.48,0-25.59,3.35-36.35,10.07c-10.77,6.71-19.1,15.69-25,26.96 c-5.91,11.26-8.87,23.49-8.87,36.68c0,13.65,3.02,26.22,9.05,37.71c6.02,11.49,14.42,20.59,25.17,27.3 c10.75,6.71,22.87,10.07,36.35,10.07c13.48,0,25.65-3.64,36.53-10.93c10.87-7.27,19.73-17.86,26.59-31.73h70.2 c-5.44,20.02-14.66,37.48-27.65,52.38c-13.01,14.91-28.61,26.45-46.82,34.63c-18.2,8.2-37.58,12.28-58.15,12.28 c-18.67,0-36.35-3.18-53-9.56c-16.67-6.36-31.63-15.81-44.87-28.31c-13.94-12.98-24.18-27.47-30.66-43.51 c-6.5-16.04-9.76-33.84-9.76-53.4c0-22.07,6.04-42.89,18.08-62.45c12.06-19.56,28.5-35.26,49.29-47.09 c20.81-11.83,43.38-17.74,67.74-17.74c18.2,0,34.75,2.5,49.64,7.5c14.89,5.01,28.84,12.86,41.83,23.56 c25.06,20.69,39.83,43.9,44.32,69.61h-70.2c-5.67-13.65-14.24-24.4-25.7-32.26C306.25,616.87,293.66,612.94,279.96,612.94" class="st2"/><polygon points="883.6 561.07 883.6 617.71 788.23 617.71 788.23 660.71 880.19 660.71 880.19 717.35 788.23 717.35 788.23 813.59 710.81 813.59 710.81 561.07" class="st2"/><polygon points="1085.61 561.07 1085.61 617.71 987.24 617.71 987.24 656.96 1082.61 656.96 1082.61 713.61 987.24 713.61 987.24 756.94 1085.61 756.94 1085.61 813.59 909.82 813.59 909.82 561.07" class="st2"/><polygon points="1791.45 560.86 1791.45 617.5 1693.08 617.5 1693.08 656.75 1788.45 656.75 1788.45 713.4 1693.08 713.4 1693.08 756.73 1791.45 756.73 1791.45 813.38 1615.66 813.38 1615.66 560.86" class="st2"/><polygon points="1182.22 813.59 1111.8 813.59 1111.8 561.07 1175.22 561.07 1287.28 720.78 1284.17 561.07 1354.59 561.07 1354.59 813.59 1290.77 813.59 1180.29 659.35" class="st2"/><path d="M1486.05,610c-7.7,0-14.27,1.94-19.68,5.8c-5.42,3.88-8.12,8.54-8.12,13.99c0,7.06,3.7,12.75,11.11,17.07 c7.43,4.33,20.97,9.9,40.63,16.73c23.11,7.96,40.92,15.7,53.47,23.2c12.55,7.51,21.32,15.48,26.3,23.89 c4.99,8.41,7.48,18.42,7.48,30.03c0,24.35-9.83,43.33-29.5,56.99c-19.68,13.65-46.61,20.46-80.85,20.46 c-35.07,0-62.86-7.16-83.39-21.5c-20.51-14.33-30.79-34.8-30.79-61.42v-5.46h80.41c0.29,10.46,3.43,18.83,9.4,25.08 c6,6.26,13.98,9.38,23.96,9.38c8.27,0,15.4-2.32,21.39-6.99c5.98-4.67,8.97-10.41,8.97-17.24c0-7.96-4.78-14.5-14.32-19.61 c-9.56-5.12-23.17-10.41-40.84-15.88c-1.15-0.45-2.5-0.85-4.07-1.18c-1.57-0.34-3.06-0.86-4.49-1.55 c-25.95-8.41-44.97-18.3-57.11-29.68c-12.11-11.38-18.17-25.26-18.17-41.64c0-13.88,5.06-26.5,15.18-37.87 c10.12-11.38,23.66-20.31,40.64-26.79c16.96-6.49,35.14-9.73,54.53-9.73c20.24,0,38.91,3.54,56.02,10.58 c17.1,7.04,29.73,15.98,37.85,26.79c8.12,10.8,12.33,24.5,12.62,41.12h-79.98c-1.72-8.87-4.86-15.18-9.41-18.94 C1500.72,611.88,1494.31,610,1486.05,610" class="st2"/><path d="M409.22,693.13c0-25.7,5.98-48.97,17.91-69.78c11.94-20.81,28.42-37.19,49.47-49.14 c21.04-11.95,44.68-17.92,70.92-17.92c25.05,0,48.23,5.75,69.49,17.24c21.28,11.5,38.13,27.13,50.53,46.92 c12.42,19.79,18.62,41.52,18.62,65.18c0,24.56-6.03,46.97-18.08,67.22c-12.06,20.26-28.44,36.23-49.11,47.94 c-20.68,11.72-43.42,17.57-68.26,17.57c-24.59,0-47.69-5.29-69.32-15.87c-21.62-10.58-39.06-25.42-52.3-44.53 C415.85,738.86,409.22,717.25,409.22,693.13 M619.15,687.67c0-13.2-3.07-25.53-9.22-37.02c-6.15-11.48-14.66-20.64-25.53-27.47 c-10.88-6.82-23.18-10.23-36.87-10.23c-13.72,0-25.95,3.35-36.7,10.07c-10.76,6.71-19.21,15.69-25.36,26.94 c-6.14,11.27-9.21,23.5-9.21,36.69c0,13.88,3.07,26.5,9.21,37.87c6.15,11.38,14.72,20.42,25.72,27.13 c10.99,6.71,23.46,10.07,37.4,10.07c13.48,0,25.59-3.35,36.36-10.07c10.75-6.71,19.14-15.69,25.17-26.96 C616.13,713.44,619.15,701.09,619.15,687.67 M619.15,687.67c0-13.2-3.07-25.53-9.22-37.02c-6.15-11.48-14.66-20.64-25.53-27.47 c-10.88-6.82-23.18-10.23-36.87-10.23c-13.72,0-25.95,3.35-36.7,10.07c-10.76,6.71-19.21,15.69-25.36,26.94 c-6.14,11.27-9.21,23.5-9.21,36.69c0,13.88,3.07,26.5,9.21,37.87c6.15,11.38,14.72,20.42,25.72,27.13 c10.99,6.71,23.46,10.07,37.4,10.07c13.48,0,25.59-3.35,36.36-10.07c10.75-6.71,19.14-15.69,25.17-26.96 C616.13,713.44,619.15,701.09,619.15,687.67" class="st2"/><path d="M619.15,687.67c0-13.2-3.07-25.53-9.22-37.02c-6.15-11.48-14.66-20.64-25.53-27.47 c-10.88-6.82-23.18-10.23-36.87-10.23c-13.72,0-25.95,3.35-36.7,10.07c-10.76,6.71-19.21,15.69-25.36,26.94 c-6.14,11.27-9.21,23.5-9.21,36.69c0,13.88,3.07,26.5,9.21,37.87c6.15,11.38,14.72,20.42,25.72,27.13 c10.99,6.71,23.46,10.07,37.4,10.07c13.48,0,25.59-3.35,36.36-10.07c10.75-6.71,19.14-15.69,25.17-26.96 C616.13,713.44,619.15,701.09,619.15,687.67" class="st0"/></g><g><path d="M1769.82,828.31h-7.34v19.83h-1.76v-19.83h-7.34v-1.49h16.44V828.31z" class="st2"/><path d="M1773.34,826.82l7.84,18.78h0.09l7.87-18.78h2.31v21.33h-1.74v-9.42l0.15-9.33l-0.09-0.03l-7.92,18.78h-1.22 l-7.91-18.69l-0.09,0.01l0.16,9.26v9.42h-1.74v-21.33H1773.34z" class="st2"/></g></g></svg>